<?xml version="1.0" encoding="utf-8"?>
<svg xmlns="http://www.w3.org/2000/svg" xmlns:xlink="http://www.w3.org/1999/xlink" width="100" height="100">
  <path fill="#6BBCFF" transform="matrix(0.499985 -0.00384752 0.00384752 0.499985 9.3489 53.1757)" d="M4.61008 4.719C5.7282 3.55923 -0.681767 4.89983 0.433849 1.89423C2.07966 -2.53977 11.0705 -11.4829 11.0705 -11.4829L15.6781 -16.7606L22.9904 -32.8627C22.9904 -32.8627 28.4332 -47.8316 27.3447 -50.457C26.2561 -53.0823 22.4738 -61.6507 23.5623 -62.8865C24.6509 -64.1224 27.3447 -64.1989 27.3447 -65.9019C27.3447 -67.6049 26.0056 -74.1196 28.4333 -75.6495C30.861 -77.1795 37.4894 -74.6646 37.4894 -74.6646C37.4894 -74.6646 43.0153 -72.7137 44.6747 -71.1453C46.3342 -69.577 47.1678 -67.6048 50.2731 -67.6048C53.3783 -67.6048 55.2139 -70.2045 59.4405 -71.7729C63.6671 -73.3412 70.4018 -78.3997 70.4018 -78.3997L69.0192 -74.1196L79.7857 -78.3997L78.0816 -74.4822L89.5101 -78.3997L88.1886 -74.6646C88.1886 -74.6646 101.698 -75.6495 101.698 -75.6495C101.698 -75.6495 99.1097 -73.3412 99.1097 -73.3412C99.1097 -73.3412 103.356 -70.9452 105.28 -72.7137C107.203 -74.4822 112.972 -79.7876 112.972 -79.7876L118.311 -79.7876C118.311 -79.7876 123.8 -74.4167 123.8 -72.7137C123.8 -71.0107 126.346 -65.9019 126.346 -65.9019L134.777 -39.2786C134.777 -39.2786 139.328 -25.0214 143.807 -20.8191C148.287 -16.6167 160.17 -3.86641 160.17 -3.86641C160.17 -3.86641 161.475 -1.10396 160.418 -1.10396C159.361 -1.10396 156.664 -2.246 156.303 -1.74709C155.942 -1.24818 157.076 0.522187 157.076 0.522187C157.076 0.522187 160.645 4.719 160.971 6.69311C161.297 8.66721 162.409 13.9741 161.475 13.2976C160.54 12.6211 157.737 8.4101 157.737 10.4428C157.737 12.4755 159.313 16.5028 158.869 19.3331C158.425 22.1634 157.201 26.6245 154.768 27.9083C152.335 29.1921 151.612 28.8669 150.051 30.4845C148.49 32.1021 148.809 34.1081 143.807 36.9548C138.805 39.8014 126.346 47.4118 124.743 49.1234C123.14 50.835 118.311 55.6094 118.311 55.6094L107.476 64.2306C107.476 64.2306 99.8926 68.1696 97.7031 68.5577C95.5135 68.9459 92.3238 69.3341 88.1886 69.3341C84.0533 69.3341 77.3076 67.1841 73.8547 66.0612C70.4018 64.9383 60.3404 59.7391 60.3404 59.7391L50.2731 52.7454C50.2731 52.7454 45.7203 48.8232 42.9161 48.3414C40.1119 47.8596 33.8764 47.536 31.6992 46.4142C29.522 45.2924 22.9904 41.927 22.9904 41.927L15.6781 36.9548L14.2886 36.9548L10.4576 32.454L6.70922 27.9083L5.72735 20.7989C5.72735 20.7989 5.50185 16.4544 5.05596 17.1848C4.61008 17.9152 3.27241 20.1062 3.27241 20.1062C3.27241 20.1062 1.83032 22.8448 1.56059 20.7989C1.29086 18.753 1.29086 11.112 1.29086 11.112C1.29086 11.112 1.84246 7.58973 4.61008 4.719Z"></path>
  <path fill="none" stroke="#153C5D" stroke-width="2" stroke-linejoin="round" transform="matrix(0.499985 -0.00384752 0.00384752 0.499985 9.3489 53.1757)" d="M4.61008 4.719C5.7282 3.55923 -0.681767 4.89983 0.433849 1.89423C2.07966 -2.53977 11.0705 -11.4829 11.0705 -11.4829L15.6781 -16.7606L22.9904 -32.8627C22.9904 -32.8627 28.4332 -47.8316 27.3447 -50.457C26.2561 -53.0823 22.4738 -61.6507 23.5623 -62.8865C24.6509 -64.1224 27.3447 -64.1989 27.3447 -65.9019C27.3447 -67.6049 26.0056 -74.1196 28.4333 -75.6495C30.861 -77.1795 37.4894 -74.6646 37.4894 -74.6646C37.4894 -74.6646 43.0153 -72.7137 44.6747 -71.1453C46.3342 -69.577 47.1678 -67.6048 50.2731 -67.6048C53.3783 -67.6048 55.2139 -70.2045 59.4405 -71.7729C63.6671 -73.3412 70.4018 -78.3997 70.4018 -78.3997L69.0192 -74.1196L79.7857 -78.3997L78.0816 -74.4822L89.5101 -78.3997L88.1886 -74.6646C88.1886 -74.6646 101.698 -75.6495 101.698 -75.6495C101.698 -75.6495 99.1097 -73.3412 99.1097 -73.3412C99.1097 -73.3412 103.356 -70.9452 105.28 -72.7137C107.203 -74.4822 112.972 -79.7876 112.972 -79.7876L118.311 -79.7876C118.311 -79.7876 123.8 -74.4167 123.8 -72.7137C123.8 -71.0107 126.346 -65.9019 126.346 -65.9019L134.777 -39.2786C134.777 -39.2786 139.328 -25.0214 143.807 -20.8191C148.287 -16.6167 160.17 -3.86641 160.17 -3.86641C160.17 -3.86641 161.475 -1.10396 160.418 -1.10396C159.361 -1.10396 156.664 -2.246 156.303 -1.74709C155.942 -1.24818 157.076 0.522187 157.076 0.522187C157.076 0.522187 160.645 4.719 160.971 6.69311C161.297 8.66721 162.409 13.9741 161.475 13.2976C160.54 12.6211 157.737 8.4101 157.737 10.4428C157.737 12.4755 159.313 16.5028 158.869 19.3331C158.425 22.1634 157.201 26.6245 154.768 27.9083C152.335 29.1921 151.612 28.8669 150.051 30.4845C148.49 32.1021 148.809 34.1081 143.807 36.9548C138.805 39.8014 126.346 47.4118 124.743 49.1234C123.14 50.835 118.311 55.6094 118.311 55.6094L107.476 64.2306C107.476 64.2306 99.8926 68.1696 97.7031 68.5577C95.5135 68.9459 92.3238 69.3341 88.1886 69.3341C84.0533 69.3341 77.3076 67.1841 73.8547 66.0612C70.4018 64.9383 60.3404 59.7391 60.3404 59.7391L50.2731 52.7454C50.2731 52.7454 45.7203 48.8232 42.9161 48.3414C40.1119 47.8596 33.8764 47.536 31.6992 46.4142C29.522 45.2924 22.9904 41.927 22.9904 41.927L15.6781 36.9548L14.2886 36.9548L10.4576 32.454L6.70922 27.9083L5.72735 20.7989C5.72735 20.7989 5.50185 16.4544 5.05596 17.1848C4.61008 17.9152 3.27241 20.1062 3.27241 20.1062C3.27241 20.1062 1.83032 22.8448 1.56059 20.7989C1.29086 18.753 1.29086 11.112 1.29086 11.112C1.29086 11.112 1.84246 7.58973 4.61008 4.719Z"></path>
  <path fill="#153C5D" transform="matrix(0.499985 -0.00384752 0.00384752 0.499985 26.5848 18.7921)" d="M-2.48658 -1.65942C-1.32357 -2.20433 3.04136 1.39725 6.44098 5.60138C9.8406 9.80551 11.9223 14.9347 10.0912 14.1868C9.16105 13.8068 7.40834 9.33885 4.40888 5.60138C1.40942 1.86391 -3.05879 -1.39133 -2.48658 -1.65942Z"></path>
  <path transform="matrix(0.499985 -0.00384752 0.00507716 0.659777 38.507 44.9511)" d="M-1.30385e-08 -14C9.38884 -14 17 -7.73199 17 -7.62939e-06C17 7.73198 9.38884 14 1.30385e-08 14C-9.38884 14 -17 7.73198 -17 -7.62939e-06C-17 -7.73199 -9.38884 -14 -1.30385e-08 -14Z"></path>
  <path fill="white" transform="matrix(0.499985 -0.00384752 0.00507716 0.659777 38.5089 45.2011)" d="M-1.21072e-08 -12.5C8.56041 -12.5 15.5 -6.6797 15.5 0.5C15.5 7.6797 8.56041 13.5 1.21072e-08 13.5C-8.56041 13.5 -15.5 7.6797 -15.5 0.5C-15.5 -6.6797 -8.56041 -12.5 -1.21072e-08 -12.5Z"></path>
  <path transform="matrix(0.498908 -0.0330293 0.0435852 0.658355 40.2826 44.4374)" d="M7.71341e-06 -10.8423C7.05561 -10.8423 12.7753 -5.79388 12.7753 0.433708C12.7753 6.6613 7.05561 11.7098 7.54538e-06 11.7098C-7.0556 11.7098 -12.7753 6.6613 -12.7753 0.433708C-12.7753 -5.79388 -7.0556 -10.8423 7.71341e-06 -10.8423Z"></path>
  <path fill="white" transform="matrix(0.162359 -0.518749 0.654178 0.204746 38.4896 42.7012)" d="M1.52588e-05 -3.71454C3.02429 -3.71454 5.47595 -1.98497 5.47595 0.148567C5.47595 2.2821 3.02429 4.01168 1.52588e-05 4.01168C-3.02426 4.01168 -5.47592 2.2821 -5.47592 0.148567C-5.47592 -1.98497 -3.02426 -3.71454 1.52588e-05 -3.71454Z"></path>
  <path fill="white" transform="matrix(0.162359 -0.518749 0.642182 0.200992 43.778 47.6606)" d="M-6.08589e-08 -1.96355C1.4958 -1.96355 2.70838 -1.04928 2.70838 0.078537C2.70838 1.20635 1.4958 2.12062 6.08589e-08 2.12062C-1.4958 2.12062 -2.70838 1.20635 -2.70838 0.078537C-2.70838 -1.04928 -1.4958 -1.96355 -6.08589e-08 -1.96355Z"></path>
  <path fill="#6DB1E8" transform="matrix(0.401447 -1.86938e-10 1.2916e-10 0.277369 38.4359 53.8209)" d="M0.673706 -5.15808C11.0739 -5.15808 23.2268 -12.5977 16 1.52588e-05C10.9002 4.7113 8.83656 6.00682 0 6.00682C-8.83656 6.00682 -9.12738 5.59581 -15.5 -0.410996C-22.5215 -12.0594 -8.95367 -5.15808 0.673706 -5.15808Z"></path>
  <path fill="#6DB1E8" transform="matrix(0.403943 -1.881e-10 -1.4259e-10 -0.306209 38.4795 36.2777)" d="M0.673706 -5.1581C11.0739 -5.1581 23.2268 -12.5978 16 0C10.9002 4.71129 8.83656 6.0068 0 6.0068C-8.83656 6.0068 -9.12738 5.59579 -15.5 -0.411011C-22.5215 -12.0594 -8.95367 -5.1581 0.673706 -5.1581Z"></path>
  <path transform="matrix(0.490465 -0.0971792 0.128237 0.647214 72.0239 43.1932)" d="M-0.240997 -11.9592C7.07851 -11.9592 13.0121 -6.60489 13.0121 -7.62939e-06C13.0121 6.60487 7.07851 11.9592 -0.240997 11.9592C-7.5605 11.9592 -13.4941 6.60487 -13.4941 -7.62939e-06C-13.4941 -6.60489 -7.5605 -11.9592 -0.240997 -11.9592Z"></path>
  <path fill="white" transform="matrix(0.497725 -0.0476462 0.0628736 0.656794 72.0239 43.1932)" d="M-0.220642 -11.058C6.4796 -11.058 11.9112 -6.10715 11.9112 -1.52588e-05C11.9112 6.10712 6.4796 11.0579 -0.220642 11.0579C-6.92088 11.0579 -12.3525 6.10712 -12.3525 -1.52588e-05C-12.3525 -6.10715 -6.92088 -11.058 -0.220642 -11.058Z"></path>
  <path transform="matrix(0.497725 -0.0476462 0.0628736 0.656794 70.2759 43.4566)" d="M-0.162216 -9.4932C4.76341 -9.4932 8.75643 -5.24296 8.75643 -2.28882e-05C8.75643 5.24292 4.76341 9.49316 -0.162216 9.49316C-5.08785 9.49316 -9.08086 5.24292 -9.08086 -2.28882e-05C-9.08086 -5.24296 -5.08785 -9.4932 -0.162216 -9.4932Z"></path>
  <path fill="white" transform="matrix(0.483845 0.126073 -0.166365 0.638478 68.2625 41.7221)" d="M-0.064926 -3.7058C1.90588 -3.7058 3.50352 -2.04666 3.50352 3.76152e-06C3.50352 2.04666 1.90587 3.70581 -0.0649263 3.70581C-2.03573 3.70581 -3.63338 2.04666 -3.63338 3.86787e-06C-3.63338 -2.04666 -2.03573 -3.7058 -0.064926 -3.7058Z"></path>
  <path fill="white" transform="matrix(0.403496 0.295281 -0.38965 0.532451 72.0451 45.9431)" d="M-0.0419008 -2.22592C1.2305 -2.22592 2.26198 -1.22934 2.26198 6.74438e-06C2.26198 1.22935 1.2305 2.22593 -0.0419005 2.22593C-1.3143 2.22593 -2.34579 1.22935 -2.34579 6.60706e-06C-2.34579 -1.22934 -1.3143 -2.22592 -0.0419008 -2.22592Z"></path>
  <path fill="#6DB1E8" transform="matrix(0.278972 -0.0234958 0.0194954 0.231474 72.6354 50.4774)" d="M0.673721 -5.1581C11.074 -5.1581 23.2269 -12.5978 16 0C10.9003 4.71129 8.83657 6.00681 1.52588e-05 6.00681C-8.83654 6.0068 -9.12736 5.5958 -15.5 -0.411011C-22.5215 -12.0594 -8.95366 -5.1581 0.673721 -5.1581Z"></path>
  <path fill="#6DB1E8" transform="matrix(0.315786 -0.0724937 -0.0521609 -0.227215 69.7405 36.0004)" d="M0.673706 -5.15811C11.0739 -5.15811 23.2268 -12.5978 16 -1.4782e-05C10.9002 4.71127 8.83656 6.00679 0 6.00679C-8.83656 6.00679 -9.12738 5.59578 -15.5 -0.411026C-22.5215 -12.0594 -8.95367 -5.15811 0.673706 -5.15811Z"></path>
  <path fill="#61A3D8" transform="matrix(0.482735 0.201513 -0.213062 0.457596 56.4535 56.6935)" d="M1.59629e-05 -23.6275C8.63326 -23.6275 15.6319 -13.0491 15.6319 3.8147e-06C15.6319 13.0491 8.63325 23.6275 1.45546e-05 23.6275C-8.63323 23.6275 -15.6318 13.0491 -15.6318 3.8147e-06C-15.6318 -13.0491 -8.63322 -23.6275 1.59629e-05 -23.6275Z"></path>
  <path fill="#61A3D8" transform="matrix(0.416687 -0.307086 0.323729 0.394589 62.1332 56.4171)" d="M-1.33514e-05 -23.2099C9.08311 -23.2099 16.4464 -12.8185 16.4464 1.47686e-05C16.4464 12.8185 9.08311 23.2099 -1.33514e-05 23.2099C-9.08313 23.2099 -16.4465 12.8185 -16.4465 1.57489e-05C-16.4465 -12.8185 -9.08313 -23.2099 -1.33514e-05 -23.2099Z"></path>
  <path fill="#4185BC" transform="matrix(0.524203 0.0567546 -0.0603291 0.49677 59.6604 51.3918)" d="M-2.28882e-05 -11.7285C9.10938 -11.7285 16.494 -6.81995 16.494 -0.764892C16.494 5.29017 9.10938 10.1988 -2.28882e-05 10.1988C-9.10942 10.1988 -16.494 5.29017 -16.494 -0.764893C-16.494 -6.81995 -9.10942 -11.7285 -2.28882e-05 -11.7285Z"></path>
  <path fill="#254F71" transform="matrix(0.365669 -0.350977 0.37535 0.351129 65.9211 53.4904)" d="M2.86102e-06 -2.50002C2.20914 -2.50002 4 -1.38073 4 -1.52588e-05C4 1.3807 2.20914 2.49998 2.86102e-06 2.49998C-2.20914 2.49998 -4 1.3807 -4 -1.52588e-05C-4 -1.38073 -2.20914 -2.50002 2.86102e-06 -2.50002Z"></path>
  <path fill="#254F71" transform="matrix(-0.412131 -0.300565 0.322048 -0.396329 55.1802 53.5558)" d="M1.51677e-05 -3.05566C2.60679 -3.05566 4.72 -1.68759 4.72 1.15848e-05C4.72 1.68761 2.60679 3.05568 1.53499e-05 3.05568C-2.60676 3.05568 -4.71997 1.68761 -4.71997 1.13034e-05C-4.71997 -1.68759 -2.60676 -3.05566 1.51677e-05 -3.05566Z"></path>
  <path fill="#254F71" transform="matrix(0.527649 -0.00406041 0.00379556 0.493232 48.3218 63.6262)" d="M7.62939e-06 1.41363e-05L3.2842 4.57597C3.2842 4.57597 6.95549 6.94411 9.95202 6.90314C12.9485 6.86217 19.5798 3.63444 19.5798 3.63444L22.7733 1.73648L23.9632 1.17075L23.9632 -5.98758C23.9632 -5.98758 23.5665 -11.3639 24.5179 -11.356C25.4693 -11.3482 25.617 -9.30771 25.617 -9.30771L25.617 -4.43114L25.617 0.381147L26.5237 1.73648L29.8296 3.63444L32.4888 4.55682L35.4143 4.55682L37.6852 3.63444L40.084 2.45235L43.0678 -1.28001L44.3396 -4.74C44.3396 -4.74 44.3646 -8.17113 44.3761 -9.73771C46.4969 -9.13814 46.015 -5.80849 46.015 -5.80849L45.6035 -2.94544L44.3025 0.359804L42.3889 2.69622L39.6279 5.19095L37.6852 6.30465L35.0789 6.90314C35.0789 6.90314 29.1154 6.86441 27.8442 6.22365C26.573 5.58289 23.8937 3.66998 22.7583 3.80968C21.623 3.94938 17.9263 6.90314 17.9263 6.90314L14.9048 7.98843L11.287 8.64098L8.48316 8.64098L5.67425 7.98843L3.27178 6.30465L0.959117 4.55682L7.6284e-06 2.12682L7.62939e-06 1.41363e-05Z"></path>
  <path fill="#192B3A" transform="matrix(0.499985 -0.00384752 0.00384752 0.499985 35.0804 33.0589)" d="M0 2.12598e-06C2.317 -0.335884 5.47012 -0.686023 9.61159 -0.686023C13.7531 -0.686023 17.1036 2.78842 17.2705 0.815861C17.4374 -1.1567 12.8213 -4.54235 9.14573 -4.54235C5.47012 -4.54235 -2.317 0.335889 0 2.12598e-06Z"></path>
  <path fill="#192B3A" transform="matrix(-0.361615 0.124123 0.158256 0.461054 72.6777 30.6878)" d="M-1.52588e-05 -5.50342e-06C2.31698 -0.335892 5.47011 -0.68603 9.61157 -0.68603C13.753 -0.68603 17.1036 2.78842 17.2705 0.815853C17.4374 -1.15671 12.8213 -4.54236 9.14572 -4.54236C5.47011 -4.54236 -2.31701 0.335881 -1.52588e-05 -5.50342e-06Z"></path>
  <path fill="#DE7975" fill-opacity="0.2" transform="matrix(0.476418 0.151743 -0.151743 0.476418 28.2844 57.9254)" d="M-7.62939e-06 -6.49999C6.62741 -6.49999 12 -3.58984 12 7.62939e-06C12 3.58986 6.62741 6.50001 -7.62939e-06 6.50001C-6.62743 6.50001 -12 3.58986 -12 7.62939e-06C-12 -3.58984 -6.62743 -6.49999 -7.62939e-06 -6.49999Z"></path>
  <path fill="#DE7975" fill-opacity="0.2" transform="matrix(0.387904 -0.315485 0.315485 0.387904 80.8564 53.8755)" d="M7.41442e-06 -7.21338C5.37074 -7.21338 9.72457 -3.98384 9.72457 -2.89815e-07C9.72457 3.98384 5.37074 7.21338 7.84437e-06 7.21338C-5.37072 7.21338 -9.72456 3.98384 -9.72456 2.89815e-07C-9.72456 -3.98384 -5.37072 -7.21338 7.41442e-06 -7.21338Z"></path>
  <path fill="#518FC3" fill-opacity="0.3019608" transform="matrix(0.499985 -0.00384752 0.00384752 0.499985 74.0201 75.1787)" d="M1.90039 -1.80093C1.90039 -1.80093 -9.1171 5.31032 -22.3817 4.79949C-35.6463 4.28865 -48.1223 2.95837 -70.559 0.915021C-92.9958 -1.12832 -102.494 -9.42166 -102.494 -9.42166L-115.489 -22.2537L-118.684 -29.3569C-118.684 -29.3569 -122.047 -40.7251 -123.39 -39.8191C-124.734 -38.9132 -126.801 -35.8087 -126.801 -35.8087L-126.801 -26.316L-123.39 -29.412L-121.033 -17.4261L-114.554 -9.42166L-103.493 -3.28915L-95.6972 0.915021L-85.5879 1.94498L-72.5224 10.6294L-54.4022 20.6352L-39.7245 23.4107L-30.9567 22.4166L-20.2546 17.1847L1.90039 -1.80093Z"></path>
  <path fill="#153C5D" transform="matrix(-0.0515272 -0.604072 0.351214 -0.0299585 67.1326 23.2358)" d="M0.856323 -2.27252C0.284118 -4.09398 6.00783 -5.59546 9.40745 -1.39133C12.8071 2.8128 11.2385 10.5208 9.40745 9.77291C8.47728 9.39297 11.4292 3.38096 8.42972 -0.356512C5.43026 -4.09398 1.04571 -1.66967 0.856323 -2.27252Z"></path>
  <path fill="#153C5D" transform="matrix(0.443748 -0.00341477 0.00324347 0.421488 33.6989 19.8533)" d="M-3.0611 -2.20434C-1.89808 -2.74925 1.34912 1.84662 4.74874 6.05075C8.14836 10.2549 3.18018 16.5865 1.34914 15.8386C0.848824 15.6342 3.6874 13.1079 3.92373 10.2549C4.12505 7.82451 1.84321 5.16699 0.422648 3.39855C-2.59228 -0.354693 -3.63563 -1.93516 -3.0611 -2.20434Z"></path>
  <path fill="white" transform="matrix(0.5 -0.000127458 -0.000127459 0.537152 22.2616 28.0554)" d="M-1.66133 1.0287C-2.73998 4.36063 -4.97319 10.4544 -3.85659 12.8031C-2.73999 15.1518 40.4357 0.738732 55.207 0C69.9783 -0.738732 107.736 2.43334 107.736 0C107.736 -2.43334 106.818 -9.44564 103.875 -11.3512C100.932 -13.2568 66.809 -14.9893 52.8084 -13.2568C38.8078 -11.5242 -0.582691 -2.30322 -1.66133 1.0287Z"></path>
  <path fill="none" stroke="black" stroke-width="2" stroke-linejoin="round" transform="matrix(0.5 -0.000127458 -0.000127459 0.537152 22.2616 28.0554)" d="M-1.66133 1.0287C-2.73998 4.36063 -4.97319 10.4544 -3.85659 12.8031C-2.73999 15.1518 40.4357 0.738732 55.207 0C69.9783 -0.738732 107.736 2.43334 107.736 0C107.736 -2.43334 106.818 -9.44564 103.875 -11.3512C100.932 -13.2568 66.809 -14.9893 52.8084 -13.2568C38.8078 -11.5242 -0.582691 -2.30322 -1.66133 1.0287Z"></path>
  <path transform="matrix(0.5 -0.000127458 -0.000127459 0.537152 44.7283 26.5879)" d="M2.9218 -6.38372L3.08903 -5.16212L0.538806 -4.81303L0.719454 -3.49333L2.62766 -3.75454L2.79 -2.5686L0.881792 -2.30739L1.22844 0.224992L-0.296342 0.433712L-1.1532 -5.82591L2.9218 -6.38372ZM4.02145 -5.96507C3.8334 -6.10349 3.726 -6.28893 3.69926 -6.5214C3.67184 -6.75983 3.73398 -6.96779 3.88568 -7.14529C4.03739 -7.32279 4.24736 -7.42697 4.5156 -7.45782C4.77787 -7.48799 5.00303 -7.43387 5.19108 -7.29545C5.37913 -7.15704 5.48687 -6.96862 5.51429 -6.73019C5.54103 -6.49772 5.47855 -6.29274 5.32684 -6.11524C5.17513 -5.93774 4.96814 -5.8339 4.70587 -5.80373C4.43764 -5.77288 4.2095 -5.82666 4.02145 -5.96507ZM5.52552 -5.37258L6.09943 -0.383479L4.57052 -0.207601L3.9966 -5.1967L5.52552 -5.37258ZM11.2465 -5.41127C11.6308 -5.06394 11.8534 -4.55867 11.9143 -3.89545L12.1824 -0.973726L10.6588 -0.833926L10.4096 -3.54952C10.3789 -3.88411 10.2684 -4.13607 10.0781 -4.3054C9.88787 -4.47472 9.64635 -4.54595 9.35358 -4.51908C9.06081 -4.49222 8.83629 -4.37823 8.68001 -4.17711C8.52373 -3.97599 8.46095 -3.70813 8.49165 -3.37353L8.74082 -0.657942L7.20826 -0.51732L6.74939 -5.51831L8.28195 -5.65893L8.3428 -4.99572C8.47786 -5.23105 8.67095 -5.425 8.92206 -5.57758C9.17317 -5.73017 9.46303 -5.82153 9.79165 -5.85169C10.3772 -5.90541 10.8621 -5.75861 11.2465 -5.41127ZM16.9982 -7.61617L17.076 -6.38563L14.5071 -6.22322L14.5911 -4.89387L16.5133 -5.0154L16.5888 -3.82078L14.6667 -3.69926L14.8279 -1.14835L13.292 -1.05124L12.8934 -7.35666L16.9982 -7.61617ZM18.0828 -7.12181C17.9051 -7.27339 17.8113 -7.46607 17.8014 -7.69985C17.7912 -7.93964 17.8681 -8.1426 18.0322 -8.30873C18.1962 -8.47487 18.4131 -8.56369 18.6829 -8.5752C18.9467 -8.58644 19.1673 -8.51628 19.345 -8.3647C19.5226 -8.21313 19.6165 -8.01745 19.6267 -7.77767C19.6367 -7.54388 19.5596 -7.34392 19.3956 -7.17778C19.2315 -7.01164 19.0176 -6.92295 18.7538 -6.91171C18.4841 -6.90021 18.2604 -6.97024 18.0828 -7.12181ZM19.5404 -6.42276L19.7543 -1.40532L18.2167 -1.33977L18.0028 -6.35721L19.5404 -6.42276ZM23.6288 -2.81995L23.6605 -1.51534L22.8777 -1.49632C22.3199 -1.48277 21.8817 -1.60866 21.5632 -1.874C21.2446 -2.13934 21.0779 -2.58092 21.0629 -3.19874L21.0143 -5.19615L20.4025 -5.18129L20.3715 -6.45891L20.9833 -6.47378L20.9536 -7.69741L22.4921 -7.73479L22.5218 -6.51115L23.5295 -6.53564L23.5606 -5.25801L22.5529 -5.23353L22.6018 -3.21813C22.6055 -3.06817 22.6441 -2.96108 22.7177 -2.89684C22.7913 -2.83261 22.912 -2.80254 23.08 -2.80662L23.6288 -2.81995Z"></path>
</svg>