<?xml version="1.0" encoding="utf-8"?>
<svg xmlns="http://www.w3.org/2000/svg" xmlns:xlink="http://www.w3.org/1999/xlink" width="100" height="100">
  <path fill="none" stroke="white" stroke-width="1" stroke-linecap="round" stroke-linejoin="round" transform="matrix(0.45 0 0 0.45 27.2872 35.8805)" d="M0 0C0 0 19.9943 -3.06349 51.0525 -3.06349C82.1106 -3.06349 100.266 0 100.266 0"></path>
  <path fill="none" stroke="#153C5D" stroke-width="3" stroke-linejoin="round" transform="matrix(0.383405 0.183115 -0.207878 0.435253 32.357 83.6048)" d="M-15.4614 -28.3574C-6.96907 -39.7275 4.82519 -48.8616 18.8801 -34.1165C28.8349 -23.6727 34.2448 6.07849 29.8398 19.1686C27.3046 26.7026 5.22913 36.6213 -4.04549 25.6809C-11.9476 16.3595 -30.3656 -8.40257 -15.4614 -28.3574Z"></path>
  <path fill="none" stroke="#153C5D" stroke-width="3" stroke-linejoin="round" transform="matrix(0.429124 0.018665 -0.0266779 0.613348 28.082 97.5548)" d="M-3.22746 -2.35445C-1.87883 -16.8938 32.8295 -20.6021 33.5032 -0.780396C34.0194 14.4088 27.8582 31.7906 23.1167 37.6189C17.8411 44.1036 5.75233 40.3095 4.05487 34.845C-0.52528 20.1005 -5.29137 19.8962 -3.22746 -2.35445Z"></path>
  <path fill="#6BBCFF" transform="matrix(0.383405 0.183115 -0.207878 0.435253 32.357 83.6048)" d="M-15.4614 -28.3574C-6.96907 -39.7275 4.82519 -48.8616 18.8801 -34.1165C28.8349 -23.6727 34.2448 6.07849 29.8398 19.1686C27.3046 26.7026 5.22913 36.6213 -4.04549 25.6809C-11.9476 16.3595 -30.3656 -8.40257 -15.4614 -28.3574Z"></path>
  <path fill="#6BBCFF" transform="matrix(0.429124 0.018665 -0.0266779 0.613348 28.082 97.5548)" d="M-3.22746 -2.35445C-1.87883 -16.8938 32.8295 -20.6021 33.5032 -0.780396C34.0194 14.4088 27.8582 31.7906 23.1167 37.6189C17.8411 44.1036 5.75233 40.3095 4.05487 34.845C-0.52528 20.1005 -5.29137 19.8962 -3.22746 -2.35445Z"></path>
  <path fill="none" stroke="black" stroke-width="3" stroke-linejoin="round" transform="matrix(0.45 0 0 0.480624 36.182 79.3298)" d="M-22.8719 -20.4621C-4.284 -25.9688 23.2736 -26.5955 31.2863 -11.8196C27.5697 2.98112 28.3983 24.2027 17.2429 35.1724C1.16476 39.4529 -15.9311 39.4529 -27.6374 33.9964C-30.3774 19.0272 -28.8785 -9.09473 -22.8719 -20.4621Z"></path>
  <path fill="none" stroke="#153C5D" stroke-width="3" stroke-linejoin="round" transform="matrix(-0.422818 0.0409821 0.0465338 0.480097 62.957 85.1798)" d="M-10.7942 -33.1655C0.940552 -41.8733 15.1426 -47.5944 23.9991 -29.8773C30.272 -17.3286 26.1026 12.5376 17.7518 23.9395C12.9456 30.5017 -11.3773 34.339 -16.8406 21.4892C-21.4954 10.541 -31.3891 -17.8831 -10.7942 -33.1655Z"></path>
  <path fill="none" stroke="#153C5D" stroke-width="3" stroke-linejoin="round" transform="matrix(-0.427292 -0.0133463 -0.0191664 0.613629 62.732 99.8048)" d="M-17.5063 -6.08495C-17.5139 -20.691 16.6911 -25.1225 19.2023 -5.26141C21.1266 9.95807 16.6076 27.5132 12.429 33.4545C7.77966 40.065 -4.60602 36.5091 -6.80312 31.0648C-12.7313 16.3748 -17.4946 16.2679 -17.5063 -6.08495Z"></path>
  <path fill="#6BBCFF" transform="matrix(-0.422818 0.0409821 0.0465338 0.480097 62.957 85.1798)" d="M-10.7942 -33.1655C0.940552 -41.8733 15.1426 -47.5944 23.9991 -29.8773C30.272 -17.3286 26.1026 12.5376 17.7518 23.9395C12.9456 30.5017 -11.3773 34.339 -16.8406 21.4892C-21.4954 10.541 -31.3891 -17.8831 -10.7942 -33.1655Z"></path>
  <path fill="#6BBCFF" transform="matrix(-0.427292 -0.0133463 -0.0191664 0.613629 62.732 99.8048)" d="M-17.5063 -6.08495C-17.5139 -20.691 16.6911 -25.1225 19.2023 -5.26141C21.1266 9.95807 16.6076 27.5132 12.429 33.4545C7.77966 40.065 -4.60602 36.5091 -6.80312 31.0648C-12.7313 16.3748 -17.4946 16.2679 -17.5063 -6.08495Z"></path>
  <path fill="none" stroke="black" stroke-width="3" stroke-linejoin="round" transform="matrix(-0.449969 -0.00530879 -0.00567006 0.48059 61.382 80.4548)" d="M-23.1526 -19.4928C-4.8199 -25.7043 22.6875 -27.3822 31.3369 -12.9244C28.2677 2.00586 30.0195 23.1782 19.351 34.5645C5.06049 39.278 -13.1151 36.9699 -25.5432 35.1023C-28.9326 20.2501 -28.6594 -7.90562 -23.1526 -19.4928Z"></path>
  <path fill="#3A5074" transform="matrix(0.45 0 0 0.480624 36.182 79.3298)" d="M-22.8719 -20.4621C-4.284 -25.9688 23.2736 -26.5955 31.2863 -11.8196C27.5697 2.98112 28.3983 24.2027 17.2429 35.1724C2.68475 39.4529 -17.4555 37.7227 -27.6374 33.9964C-30.3774 19.0272 -28.8785 -9.09473 -22.8719 -20.4621Z"></path>
  <path fill="#3A5074" transform="matrix(-0.449969 -0.00530879 -0.00567006 0.48059 61.382 80.4548)" d="M-23.1526 -19.4928C-4.8199 -25.7043 22.6875 -27.3822 31.3369 -12.9244C28.2677 2.00586 30.0195 23.1782 19.351 34.5645C11.8034 37.9716 -16.1994 37.6624 -24.9439 35.1089C-28.3333 20.2567 -28.6594 -7.90562 -23.1526 -19.4928Z"></path>
  <path fill="#6BBCFF" transform="matrix(0.383857 0 0 0.476542 22.907 21.7298)" d="M0.984653 -1.47613C16.8034 -5.85323 39.7856 -7.53664 63.4957 -7.53664C87.2058 -7.53664 124.221 -10.4363 137.41 -1.00777C150.599 8.42073 127.561 42.308 128.482 58.2514C129.768 80.507 127.797 105.014 115.76 109.43C103.723 113.847 79.5402 117.793 57.1748 116.538C34.8093 115.283 22.1633 118.262 13.4312 105.014C4.6992 91.7649 11.1696 74.067 5.60979 58.2514C0.0500174 42.4357 -14.8341 2.90096 0.984653 -1.47613Z"></path>
  <path fill="none" stroke="#153C5D" stroke-width="2" stroke-linejoin="round" transform="matrix(0.383857 0 0 0.476542 22.907 21.7298)" d="M0.984653 -1.47613C16.8034 -5.85323 39.7856 -7.53664 63.4957 -7.53664C87.2058 -7.53664 124.221 -10.4363 137.41 -1.00777C150.599 8.42073 127.561 42.308 128.482 58.2514C129.768 80.507 127.797 105.014 115.76 109.43C103.723 113.847 79.5402 117.793 57.1748 116.538C34.8093 115.283 22.1633 118.262 13.4312 105.014C4.6992 91.7649 11.1696 74.067 5.60979 58.2514C0.0500174 42.4357 -14.8341 2.90096 0.984653 -1.47613Z"></path>
  <path fill="#6BBCFF" transform="matrix(0.383857 0 0 0.476542 22.907 21.7298)" d="M-0.636971 -3.57631C15.1818 -7.95341 39.7856 -7.53664 63.4957 -7.53664C87.2058 -7.53664 124.675 -13.0048 137.864 -3.5763C151.054 5.8522 132.088 42.308 132.238 58.2514C132.449 80.5432 136.965 106.616 128.954 111.589C120.943 116.562 10.7524 121.186 5.60979 109.099C0.4672 97.0115 5.94955 74.1947 4.63507 58.2514C3.32058 42.308 -16.4557 0.800778 -0.636971 -3.57631Z"></path>
  <path fill="none" stroke="black" stroke-width="3" stroke-linejoin="round" transform="matrix(0.383857 0 0 0.476542 22.907 21.7298)" d="M-0.636971 -3.57631C15.1818 -7.95341 39.7856 -7.53664 63.4957 -7.53664C87.2058 -7.53664 124.675 -13.0048 137.864 -3.5763C151.054 5.8522 132.088 42.308 132.238 58.2514C132.449 80.5432 136.965 106.616 128.954 111.589C120.943 116.562 10.7524 121.186 5.60979 109.099C0.4672 97.0115 5.94955 74.1947 4.63507 58.2514C3.32058 42.308 -16.4557 0.800778 -0.636971 -3.57631Z"></path>
  <path fill="none" stroke="#153C5D" stroke-width="4" stroke-miterlimit="4" transform="matrix(0.318167 0.318229 -0.313541 0.313479 20.882 33.2048)" d="M-21.0658 -16.5367C-16.781 -38.0899 2.11592 -31.0952 4.99762 -29.1935C22.204 -17.8387 20.5921 10.1196 29.7524 36.6319C36.4445 56.0005 8.0612 62.0549 1.64966 50.0819C-7.11423 33.7162 -22.5158 -9.24277 -21.0658 -16.5367Z"></path>
  <path fill="none" stroke="#153C5D" stroke-width="4" stroke-miterlimit="4" transform="matrix(-0.347251 0.211624 -0.163955 -0.269031 8.95695 45.8048)" d="M26.8179 -82.6236C38.106 -70.5182 26.7372 -42.4298 13.5919 -9.9848C4.51077 12.4294 -23.6672 -12.2979 -14.2584 -32.6627C-6.75956 -48.8936 20.1302 -89.7956 26.8179 -82.6236Z"></path>
  <path fill="#6BBCFF" transform="matrix(0.318167 0.318229 -0.313541 0.313479 19.982 33.6548)" d="M-20.3589 -18.6898C-16.0741 -40.243 2.82281 -33.2483 5.70451 -31.3466C22.9109 -19.9918 21.299 7.96653 30.4593 34.4787C37.1514 53.8474 8.76809 59.9018 2.35656 47.9288C-6.40734 31.5631 -21.8089 -11.3959 -20.3589 -18.6898Z"></path>
  <path fill="#61A3D8" transform="matrix(0.45 4.7404e-09 -4.7404e-09 0.45 -13.993 27.8048)" d="M48.8291 56.0211C53.0144 47.6953 52.4924 36.7441 58.5751 25.7216C64.6579 14.699 86.1378 -19.4224 82.9061 -18.3688C79.6768 -17.3159 77.4834 -18.5498 70.85 -10.9042C61.6935 -0.350491 56.7788 14.8712 53.6909 21.9415C50.603 29.0118 42.5745 48.6011 43.2898 52.8725C44.0408 57.3571 45.3951 62.8521 48.8291 56.0211Z"></path>
  <path fill="#212121" transform="matrix(0.405657 0.242904 -0.210009 0.35072 22.457 29.8298)" d="M-10.7456 -27.7807C-3.882 -31.8905 15.4493 -32.0629 18.9466 -25.7445C24.6368 -15.4642 27.0217 23.299 20.4888 34.0526C7.63123 41.7517 -6.70026 40.5822 -16.3953 37.6319C-21.392 26.042 -21.5943 -21.2846 -10.7456 -27.7807Z"></path>
  <path fill="none" stroke="black" stroke-width="2" stroke-linejoin="round" transform="matrix(0.405657 0.242904 -0.210009 0.35072 22.457 29.8298)" d="M-10.7456 -27.7807C-3.882 -31.8905 15.4493 -32.0629 18.9466 -25.7445C24.6368 -15.4642 27.0217 23.299 20.4888 34.0526C7.63123 41.7517 -6.70026 40.5822 -16.3953 37.6319C-21.392 26.042 -21.5943 -21.2846 -10.7456 -27.7807Z"></path>
  <path fill="white" transform="matrix(0.405657 0.242904 -0.210009 0.35072 22.457 29.8298)" d="M-10.7456 -27.7807C-3.882 -31.8905 15.4493 -32.0629 18.9466 -25.7445C24.6368 -15.4642 27.0217 23.299 20.4888 34.0526C7.63123 41.7517 -6.70026 40.5822 -16.3953 37.6319C-21.392 26.042 -21.5943 -21.2846 -10.7456 -27.7807Z"></path>
  <path fill="none" stroke="black" stroke-width="2" stroke-linejoin="round" transform="matrix(0.405657 0.242904 -0.210009 0.35072 22.457 29.8298)" d="M-10.7456 -27.7807C-3.882 -31.8905 15.4493 -32.0629 18.9466 -25.7445C24.6368 -15.4642 27.0217 23.299 20.4888 34.0526C7.63123 41.7517 -6.70026 40.5822 -16.3953 37.6319C-21.392 26.042 -21.5943 -21.2846 -10.7456 -27.7807Z"></path>
  <path fill="#299EFF" transform="matrix(0.405657 0.242904 -0.210009 0.35072 22.457 29.8298)" d="M-10.7456 -27.7807C-3.882 -31.8905 15.4493 -32.0629 18.9466 -25.7445C24.6368 -15.4642 27.0217 23.299 20.4888 34.0526C7.63123 41.7517 -6.70026 40.5822 -16.3953 37.6319C-21.392 26.042 -21.5943 -21.2846 -10.7456 -27.7807Z"></path>
  <path fill="none" stroke="black" stroke-width="2" stroke-linejoin="round" transform="matrix(0.405657 0.242904 -0.210009 0.35072 22.457 29.8298)" d="M-10.7456 -27.7807C-3.882 -31.8905 15.4493 -32.0629 18.9466 -25.7445C24.6368 -15.4642 27.0217 23.299 20.4888 34.0526C7.63123 41.7517 -6.70026 40.5822 -16.3953 37.6319C-21.392 26.042 -21.5943 -21.2846 -10.7456 -27.7807Z"></path>
  <path fill="none" stroke="black" stroke-width="1" stroke-linecap="round" stroke-linejoin="round" transform="matrix(0.45 0 0 0.45 24.707 73.0298)" d="M-3.8147e-06 -1.23933e-05C-3.8147e-06 -1.23933e-05 36.4704 6.09329 53.6469 6.09329C70.8233 6.09329 107.407 -1.23933e-05 107.407 -1.23933e-05"></path>
  <path fill="none" stroke="#153C5D" stroke-width="4" stroke-miterlimit="4" transform="matrix(0.306605 -0.329383 0.32453 0.302088 76.682 34.3298)" d="M-3.95767 -28.2812C13.0073 -41.8046 22.9137 -23.9271 23.8933 -20.5666C29.742 -0.50111 10.7333 19.6649 0.827896 45.8947C-6.40845 65.0569 -31.8221 50.7845 -29.0769 37.4267C-25.3245 19.1681 -9.69886 -23.7047 -3.95767 -28.2812Z"></path>
  <path fill="none" stroke="#153C5D" stroke-width="4" stroke-miterlimit="4" transform="matrix(-0.347251 0.211624 -0.163955 -0.269031 90.632 46.9298)" d="M40.0976 -69.2359C52.8564 -60.2553 42.8146 -31.6863 31.2014 1.31659C23.1788 24.1161 -8.2877 6.82564 0.223648 -14.1276C7.00726 -30.8276 32.5385 -74.5565 40.0976 -69.2359Z"></path>
  <path fill="#6BBCFF" transform="matrix(0.306605 -0.329383 0.32453 0.302088 76.682 34.3298)" d="M-3.95767 -28.2812C13.0073 -41.8046 22.9137 -23.9271 23.8933 -20.5666C29.742 -0.50111 10.7333 19.6649 0.827896 45.8947C-6.40845 65.0569 -31.8221 50.7845 -29.0769 37.4267C-25.3245 19.1681 -9.69886 -23.7047 -3.95767 -28.2812Z"></path>
  <path fill="#61A3D8" transform="matrix(-0.28859 -0.287016 -0.269526 0.271004 93.332 50.3048)" d="M6.56947 7.33695C15.3239 4.03356 22.5414 -4.42187 34.5177 -8.42581C46.494 -12.4298 85.4575 -23.017 82.4229 -24.4417C79.3906 -25.8653 78.6818 -28.2738 68.6532 -27.143C54.8101 -25.582 40.7565 -17.6758 33.6547 -14.5525C26.5529 -11.4293 7.25215 -2.41633 4.80193 1.23059C2.22932 5.05962 -0.613144 10.0473 6.56947 7.33695Z"></path>
  <path fill="#212121" transform="matrix(-0.417895 0.220499 0.190768 0.361547 75.1069 29.1548)" d="M-12.4654 -27.1847C-5.62361 -31.3429 13.7065 -31.6512 17.237 -25.3575C22.9812 -15.1174 25.5701 23.6283 19.0939 34.4277C6.27713 42.2171 -8.0602 41.1484 -17.7706 38.2663C-22.8283 26.7117 -23.2797 -20.6125 -12.4654 -27.1847Z"></path>
  <path fill="none" stroke="black" stroke-width="2" stroke-linejoin="round" transform="matrix(-0.417895 0.220499 0.190768 0.361547 75.1069 29.1548)" d="M-12.4654 -27.1847C-5.62361 -31.3429 13.7065 -31.6512 17.237 -25.3575C22.9812 -15.1174 25.5701 23.6283 19.0939 34.4277C6.27713 42.2171 -8.0602 41.1484 -17.7706 38.2663C-22.8283 26.7117 -23.2797 -20.6125 -12.4654 -27.1847Z"></path>
  <path fill="white" transform="matrix(-0.417895 0.220499 0.190768 0.361547 75.1069 29.1548)" d="M-12.4654 -27.1847C-5.62361 -31.3429 13.7065 -31.6512 17.237 -25.3575C22.9812 -15.1174 25.5701 23.6283 19.0939 34.4277C6.27713 42.2171 -8.0602 41.1484 -17.7706 38.2663C-22.8283 26.7117 -23.2797 -20.6125 -12.4654 -27.1847Z"></path>
  <path fill="none" stroke="black" stroke-width="2" stroke-linejoin="round" transform="matrix(-0.417895 0.220499 0.190768 0.361547 75.1069 29.1548)" d="M-12.4654 -27.1847C-5.62361 -31.3429 13.7065 -31.6512 17.237 -25.3575C22.9812 -15.1174 25.5701 23.6283 19.0939 34.4277C6.27713 42.2171 -8.0602 41.1484 -17.7706 38.2663C-22.8283 26.7117 -23.2797 -20.6125 -12.4654 -27.1847Z"></path>
  <path fill="#299FFF" transform="matrix(-0.417895 0.220499 0.190768 0.361547 75.1069 29.1548)" d="M-12.4654 -27.1847C-5.62361 -31.3429 13.7065 -31.6512 17.237 -25.3575C22.9812 -15.1174 25.5701 23.6283 19.0939 34.4277C6.27713 42.2171 -8.0602 41.1484 -17.7706 38.2663C-22.8283 26.7117 -23.2797 -20.6125 -12.4654 -27.1847Z"></path>
  <path fill="none" stroke="black" stroke-width="2" stroke-linejoin="round" transform="matrix(-0.417895 0.220499 0.190768 0.361547 75.1069 29.1548)" d="M-12.4654 -27.1847C-5.62361 -31.3429 13.7065 -31.6512 17.237 -25.3575C22.9812 -15.1174 25.5701 23.6283 19.0939 34.4277C6.27713 42.2171 -8.0602 41.1484 -17.7706 38.2663C-22.8283 26.7117 -23.2797 -20.6125 -12.4654 -27.1847Z"></path>
  <path fill="#212121" transform="matrix(0.383857 0 0 0.476542 22.907 21.7298)" d="M-0.636971 -3.57631C15.1818 -7.95341 39.7856 -7.53664 63.4957 -7.53664C87.2058 -7.53664 124.675 -13.0048 137.864 -3.5763C151.054 5.8522 130.943 42.308 131.093 58.2514C131.304 80.5432 135.226 105.95 128.954 111.39C122.683 116.83 12.7153 119.388 6.92428 110.194C1.1333 101.001 6.92428 74.1947 5.60979 58.2514C4.2953 42.308 -16.4557 0.800778 -0.636971 -3.57631Z"></path>
  <path fill="white" transform="matrix(0.383857 0 0 0.476542 22.907 21.7298)" d="M-0.636971 -3.57631C15.1818 -7.95341 39.7856 -7.53664 63.4957 -7.53664C87.2058 -7.53664 124.675 -13.0048 137.864 -3.5763C151.054 5.8522 130.943 42.308 131.093 58.2514C131.304 80.5432 135.226 105.95 128.954 111.39C122.683 116.83 12.7153 119.388 6.92428 110.194C1.1333 101.001 6.92428 74.1947 5.60979 58.2514C4.2953 42.308 -16.4557 0.800778 -0.636971 -3.57631Z"></path>
  <path fill="none" stroke="white" stroke-width="0.5" stroke-linejoin="round" transform="matrix(0.383857 0 0 0.476542 22.907 21.7298)" d="M-0.636971 -3.57631C15.1818 -7.95341 39.7856 -7.53664 63.4957 -7.53664C87.2058 -7.53664 124.675 -13.0048 137.864 -3.5763C151.054 5.8522 130.943 42.308 131.093 58.2514C131.304 80.5432 135.226 105.95 128.954 111.39C122.683 116.83 12.7153 119.388 6.92428 110.194C1.1333 101.001 6.92428 74.1947 5.60979 58.2514C4.2953 42.308 -16.4557 0.800778 -0.636971 -3.57631Z"></path>
  <path fill="#299EFF" transform="matrix(0.383857 0 0 0.476542 22.907 21.7298)" d="M-0.636971 -3.57631C15.1818 -7.95341 39.7856 -7.53664 63.4957 -7.53664C87.2058 -7.53664 124.675 -13.0048 137.864 -3.5763C151.054 5.8522 130.943 42.308 131.093 58.2514C131.304 80.5432 135.226 105.95 128.954 111.39C122.683 116.83 12.7153 119.388 6.92428 110.194C1.1333 101.001 6.92428 74.1947 5.60979 58.2514C4.2953 42.308 -16.4557 0.800778 -0.636971 -3.57631Z"></path>
  <path fill="none" stroke="#299EFF" stroke-width="1.2" stroke-linejoin="round" transform="matrix(0.383857 0 0 0.476542 22.907 21.7298)" d="M-0.636971 -3.57631C15.1818 -7.95341 39.7856 -7.53664 63.4957 -7.53664C87.2058 -7.53664 124.675 -13.0048 137.864 -3.5763C151.054 5.8522 130.943 42.308 131.093 58.2514C131.304 80.5432 135.226 105.95 128.954 111.39C122.683 116.83 12.7153 119.388 6.92428 110.194C1.1333 101.001 6.92428 74.1947 5.60979 58.2514C4.2953 42.308 -16.4557 0.800778 -0.636971 -3.57631Z"></path>
  <path fill="white" fill-opacity="0.78039217" transform="matrix(0.1125 0 0 0.1125 54.5563 46.0972)" d="M-40.891 -49.0205C-41.305 -49.9037 -42.053 -50.5862 -42.97 -50.9179C-43.887 -51.2496 -44.898 -51.2034 -45.782 -50.7894C-46.665 -50.3754 -47.347 -49.6275 -47.679 -48.7102C-48.011 -47.793 -47.964 -46.7815 -47.55 -45.8984C-47.55 -45.8984 -47.4 -45.5882 -47.4 -45.5882C-58.622 -38.2768 -64.151 -29.8486 -66.353 -21.4904C-68.498 -13.3224 -67.328 -5.6464 -65.914 0.1026C-65.914 0.1026 -65.928 0.1056 -65.928 0.1056L-65.921 0.1346C-65.921 0.1346 -69.116 7.3476 -69.116 7.3476C-69.732 8.7396 -70.054 10.2436 -70.061 11.7656C-70.067 13.2876 -69.759 14.7956 -69.155 16.1926C-68.55 17.5896 -67.663 18.8466 -66.549 19.8846C-65.436 20.9216 -64.119 21.7176 -62.683 22.2216C-62.683 22.2216 9.831 47.6856 9.831 47.6856C18.843 50.8546 28.598 51.2496 37.837 48.8206C37.837 48.8206 57.675 43.5976 57.675 43.5976C59.97 42.9936 62.108 41.9026 63.944 40.3996C65.78 38.8966 67.271 37.0166 68.316 34.8866C69.362 32.7556 69.936 30.4256 70.002 28.0536C70.067 25.6826 69.622 23.3236 68.695 21.1396C65.504 13.6386 57.439 9.7786 50.044 9.4136C45.35 9.1746 40.7 8.0036 37.397 5.1026C37.397 5.1026 6.227 -26.1534 6.227 -26.1534C6.227 -26.1534 7.455 -26.6896 7.455 -26.6896C7.902 -26.8834 8.307 -27.1642 8.645 -27.5158C8.983 -27.8673 9.247 -28.2826 9.423 -28.7375C9.599 -29.1923 9.683 -29.6776 9.669 -30.1651C9.656 -30.6526 9.546 -31.1325 9.345 -31.577C9.144 -32.0214 8.857 -32.4215 8.5 -32.7539C8.143 -33.0862 7.724 -33.3443 7.266 -33.513C6.809 -33.6818 6.322 -33.7578 5.835 -33.7366C5.348 -33.7155 4.87 -33.5976 4.428 -33.3899C2.488 -32.5192 0.521 -31.8264 -1.472 -31.3117C-16.212 -27.5145 -31.692 -33.5208 -39.276 -46.0087C-39.872 -46.9805 -40.411 -47.9862 -40.891 -49.0205ZM-53.668 -30.4342C-53.668 -30.4342 -30.944 -7.5164 -30.944 -7.5164C-29.57 -6.1324 -28.803 -4.2594 -28.81 -2.3104C-28.817 -0.3604 -29.598 1.5066 -30.982 2.8806C-30.982 2.8806 -36.244 8.1056 -36.244 8.1056L-58.243 0.4166C-58.243 0.4166 -58.48 -0.4864 -58.48 -0.4864C-59.914 -5.9334 -61.065 -12.6714 -59.238 -19.6224C-58.329 -23.1014 -56.627 -26.7732 -53.662 -30.4431M-26.155 11.6236C-26.155 11.6236 -7.791 -6.5944 -7.791 -6.5944C-7.105 -7.2734 -6.292 -7.8114 -5.398 -8.1764C-4.504 -8.5414 -3.546 -8.7274 -2.58 -8.7224C-1.615 -8.7174 -0.659 -8.5224 0.231 -8.1484C1.121 -7.7744 1.929 -7.2284 2.609 -6.5414C2.609 -6.5414 8.851 -0.2474 8.851 -0.2474C10.224 1.1376 10.99 3.0116 10.982 4.9616C10.974 6.9116 10.191 8.7786 8.806 10.1506C8.806 10.1506 -1.396 20.2656 -1.396 20.2656L-26.155 11.6236ZM34.313 34.5416C34.313 34.5416 62.641 27.0826 62.641 27.0826C62.884 31.3526 60.105 35.3536 55.803 36.4866C55.803 36.4866 35.964 41.7096 35.964 41.7096C28.147 43.7686 19.891 43.4366 12.264 40.7576C12.264 40.7576 -60.244 15.2836 -60.244 15.2836C-60.722 15.1156 -61.16 14.8496 -61.531 14.5046C-61.902 14.1586 -62.197 13.7396 -62.398 13.2736C-62.599 12.8086 -62.702 12.3066 -62.7 11.7996C-62.698 11.2926 -62.59 10.7906 -62.385 10.3276C-62.385 10.3276 -61.025 7.2326 -61.025 7.2326C-61.025 7.2326 14.974 33.7786 14.974 33.7786C21.2 35.9546 27.934 36.2206 34.313 34.5416Z"></path>
  <path fill="white" transform="matrix(0.1125 0 0 0.1125 48.2588 50.0891)" d="M-30.9995 -78.0714C-31.2449 -79.4146 -32.0141 -80.6053 -33.1377 -81.3813C-34.2613 -82.1574 -35.6471 -82.4554 -36.9903 -82.2096C-38.3336 -81.9639 -39.5242 -81.1947 -40.3003 -80.0711C-41.0763 -78.9475 -41.3743 -77.5617 -41.1286 -76.2185C-41.1286 -76.2185 -41.0359 -75.7449 -41.0359 -75.7449C-58.8344 -69.8464 -69.3242 -60.4066 -75.2844 -49.8756C-81.1006 -39.5816 -82.2536 -28.7726 -82.3874 -20.4866C-82.3874 -20.4866 -82.408 -20.4866 -82.408 -20.4866L-82.408 -20.4446C-82.408 -20.4446 -89.305 -11.8186 -89.305 -11.8186C-90.6358 -10.1536 -91.6077 -8.2316 -92.1593 -6.1736C-92.711 -4.1146 -92.8305 -1.9646 -92.5105 0.1424C-92.1904 2.2494 -91.4377 4.2674 -90.2996 6.0694C-89.1615 7.8714 -87.6628 9.4184 -85.8977 10.6124C-85.8977 10.6124 3.1975 70.9364 3.1975 70.9364C14.2695 78.4384 27.3355 82.4504 40.7095 82.4554C40.7095 82.4554 69.4305 82.4554 69.4305 82.4554C72.7525 82.4554 76.0355 81.7414 79.0565 80.3604C82.0785 78.9804 84.7675 76.9664 86.9415 74.4544C89.1165 71.9434 90.7255 68.9934 91.6595 65.8054C92.5935 62.6174 92.8305 59.2664 92.3555 55.9784C90.7085 44.6864 81.1655 36.5844 71.2835 33.4554C65.0145 31.4584 59.1365 28.2154 55.6975 23.1094C55.6975 23.1094 24.6405 -30.3166 24.6405 -30.3166C24.6405 -30.3166 26.4935 -30.6056 26.4935 -30.6056C27.1685 -30.7076 27.8165 -30.9436 28.3995 -31.2996C28.9825 -31.6546 29.4885 -32.1226 29.8885 -32.6756C30.2885 -33.2286 30.5755 -33.8566 30.7305 -34.5206C30.8865 -35.1856 30.9075 -35.8746 30.7945 -36.5486C30.6815 -37.2216 30.4355 -37.8656 30.0705 -38.4426C29.7055 -39.0196 29.2295 -39.5186 28.6705 -39.9106C28.1115 -40.3016 27.4795 -40.5786 26.8125 -40.7236C26.1455 -40.8686 25.4565 -40.8796 24.7845 -40.7556C21.8475 -40.2676 18.9375 -40.0316 16.0555 -40.0446C-5.2535 -40.1586 -24.0715 -53.8086 -29.8875 -73.4185C-30.3475 -74.9466 -30.7195 -76.5002 -30.9995 -78.0714ZM-54.9227 -57.4626C-54.9227 -57.4626 -32.3271 -18.3346 -32.3271 -18.3346C-30.9615 -15.9716 -30.5895 -13.1626 -31.2943 -10.5256C-31.9989 -7.8886 -33.7219 -5.6396 -36.0845 -4.2726C-36.0845 -4.2726 -45.0712 0.9254 -45.0712 0.9254L-72.1139 -17.3256C-72.1139 -17.3256 -72.1139 -18.6336 -72.1139 -18.6336C-72.1139 -26.5186 -71.2697 -36.0506 -66.3183 -44.8116C-63.8477 -49.1966 -60.2345 -53.5616 -54.9124 -57.4726M-32.6668 9.2844C-32.6668 9.2844 -1.3105 -8.8336 -1.3105 -8.8336C-0.1395 -9.5086 1.1535 -9.9466 2.4935 -10.1226C3.8345 -10.2986 5.1965 -10.2076 6.5025 -9.8576C7.8085 -9.5066 9.0325 -8.9016 10.1045 -8.0776C11.1765 -7.2536 12.0755 -6.2266 12.7505 -5.0556C12.7505 -5.0556 18.9585 5.6914 18.9585 5.6914C20.3235 8.0564 20.6935 10.8664 19.9865 13.5034C19.2805 16.1404 17.5545 18.3884 15.1905 19.7534C15.1905 19.7534 -2.2275 29.8114 -2.2275 29.8114L-32.6668 9.2844ZM41.0285 61.8664C41.0285 61.8664 82.0405 61.8664 82.0405 61.8664C80.8465 67.7344 75.6585 72.1614 69.4305 72.1614C69.4305 72.1614 40.7095 72.1614 40.7095 72.1614C29.3915 72.1614 18.3335 68.7694 8.9625 62.4224C8.9625 62.4224 -80.1227 2.0884 -80.1227 2.0884C-80.7103 1.6904 -81.2091 1.1744 -81.5878 0.5744C-81.9665 -0.0256 -82.2169 -0.6986 -82.3232 -1.4006C-82.4296 -2.1026 -82.3896 -2.8186 -82.2058 -3.5046C-82.0219 -4.1896 -81.6982 -4.8296 -81.255 -5.3846C-81.255 -5.3846 -78.3109 -9.0906 -78.3109 -9.0906C-78.3109 -9.0906 15.1185 53.9404 15.1185 53.9404C22.7725 59.1054 31.7955 61.8664 41.0285 61.8664Z"></path>
  <path fill="none" stroke="#153C5D" stroke-width="3" stroke-linejoin="round" transform="matrix(0.411425 0.18229 -0.18229 0.411425 3.10696 71.2298)" d="M7.76011 -8.48328C8.09856 -5.02898 1.60092 3.50203 12.1587 12.9364C19.3797 19.3891 50.257 0.0999908 41.9291 -9.62195C35.799 -16.7783 27.0945 -14.476 26.1953 -15.7019C19.6003 -24.6925 6.70683 -19.2331 7.76011 -8.48328Z"></path>
  <path fill="#6BBCFF" transform="matrix(-0.347251 0.211624 -0.163955 -0.269031 8.95695 45.8048)" d="M26.8179 -82.6236C38.106 -70.5182 26.7372 -42.4298 13.5919 -9.9848C4.51077 12.4294 -23.6672 -12.2979 -14.2584 -32.6627C-6.75956 -48.8936 20.1302 -89.7956 26.8179 -82.6236Z"></path>
  <path fill="#6BBCFF" transform="matrix(0.411425 0.18229 -0.18229 0.411425 7.6066 70.987)" d="M-1.16335 -3.93938C-0.824924 -0.485077 -7.32255 8.04591 3.23519 17.4803C10.4562 23.933 41.3335 4.64388 33.0056 -5.07808C26.8755 -12.2344 18.171 -9.93213 17.2718 -11.158C10.6768 -20.1486 -2.21662 -14.6892 -1.16335 -3.93938Z"></path>
  <path fill="#153C5D" transform="matrix(0.644065 -0.0255284 0.0111051 0.280174 4.88934 83.3467)" d="M11.6671 -7.30051C10.3162 -5.94482 6.89422 -11.6862 6.50296 -14.2392C5.80529 -18.7917 6.29936 -21.6502 7.74871 -20.7377C8.16654 -20.4745 7.73327 -15.8492 8.14349 -14.1245C8.68039 -11.8676 12.1698 -7.8049 11.6671 -7.30051Z"></path>
  <path fill="#153C5D" transform="matrix(0.48122 -0.105874 0.04599 0.209035 9.39034 83.1327)" d="M15.1526 -4.99643C13.8291 -3.64316 10.438 -9.54147 10.0423 -12.1436C9.33659 -16.7838 9.81062 -19.6804 11.2405 -18.7262C11.6527 -18.4512 11.246 -13.7577 11.6569 -11.9972C12.1947 -9.69324 15.645 -5.49994 15.1526 -4.99643Z"></path>
  <path fill="#153C5D" transform="matrix(0.325742 0.251957 -0.108614 0.140422 -14.6736 59.9357)" d="M94.839 -30.4188C93.7073 -28.0325 89.7492 -30.6395 89.071 -32.7259C87.8617 -36.4462 87.9944 -39.5468 89.4901 -39.8751C89.9213 -39.9697 90.0569 -35.253 90.6547 -33.9633C91.4371 -32.2755 95.26 -31.3066 94.839 -30.4188Z"></path>
  <path fill="none" stroke="#153C5D" stroke-width="3" stroke-linejoin="round" transform="matrix(-0.442887 0.0796935 0.0796935 0.442887 89.282 72.1298)" d="M-5.39188 -3.80109C-6.31761 -0.458527 -15.4836 5.27333 -8.97466 17.7171C-4.52269 26.2281 31.3867 18.8369 27.073 6.8918C23.8978 -1.90099 14.9033 -2.74565 14.5009 -4.2C11.5497 -14.8658 -2.51096 -14.2033 -5.39188 -3.80109Z"></path>
  <path fill="#6BBCFF" transform="matrix(-0.347251 0.211624 -0.163955 -0.269031 90.632 46.9298)" d="M40.0976 -69.2359C52.8564 -60.2553 42.8146 -31.6863 31.2014 1.31659C23.1788 24.1161 -8.2877 6.82564 0.223648 -14.1276C7.00726 -30.8276 32.5385 -74.5565 40.0976 -69.2359Z"></path>
  <path fill="#6BBCFF" transform="matrix(-0.444574 0.0696718 0.0696718 0.444574 85.0272 70.6463)" d="M-14.5585 0.483368C-15.4759 3.82846 -24.618 9.55028 -18.0906 22.0222C-13.6261 30.5525 22.2219 23.2198 17.8882 11.2513C14.6981 2.44128 5.71318 1.57848 5.30817 0.121536C2.33794 -10.5635 -11.7035 -9.92661 -14.5585 0.483368Z"></path>
  <path fill="#153C5D" transform="matrix(-0.615545 -0.191248 -0.0831945 0.267768 84.4551 83.2883)" d="M-5.05132 -8.38812C-6.53197 -8.21255 -8.86954 -16.3069 -8.84471 -18.9974C-8.80051 -23.7951 -7.89514 -26.0582 -6.67117 -24.0437C-6.31828 -23.4629 -7.4385 -19.5066 -7.31784 -17.5718C-7.15994 -15.0396 -4.50041 -8.45343 -5.05132 -8.38812Z"></path>
  <path fill="#153C5D" transform="matrix(-0.43746 -0.226739 -0.0984922 0.190027 80.1627 81.9173)" d="M-7.02774 -8.57382C-8.48122 -8.3866 -10.7734 -16.6194 -10.7482 -19.3604C-10.7034 -24.2484 -9.81403 -26.5591 -8.61316 -24.5137C-8.26694 -23.9241 -9.36769 -19.8872 -9.24985 -17.9169C-9.09563 -15.3381 -6.48694 -8.64349 -7.02774 -8.57382Z"></path>
  <path fill="#153C5D" transform="matrix(-0.379826 0.159129 0.0685981 0.163737 78.0365 80.2548)" d="M-7.58005 14.8638C-9.13864 15.1752 -11.4262 7.67941 -11.3445 5.10989C-11.1989 0.528015 -10.2013 -1.71933 -8.9575 0.0838318C-8.59891 0.603729 -9.85716 4.4874 -9.77046 6.32162C-9.65701 8.72238 -7.00014 14.748 -7.58005 14.8638Z"></path>
  <path transform="matrix(0.45 0 0 0.45 33.2706 21.4095)" d="M-3.16165 -6.76804C0.192776 -8.75278 16.5903 15.4646 37.4133 15.4646C58.2362 15.4646 75.681 -8.75278 80.0812 -8.75278C84.4814 -8.75278 72.8079 26.8879 39.9498 26.8879C7.0917 26.8879 -6.51608 -4.78329 -3.16165 -6.76804Z"></path>
  <path fill="#DFDFDF" transform="matrix(0.45 0 0 0.45 33.2706 21.4095)" d="M-3.16165 -6.76804C0.192776 -8.75278 16.5903 15.4646 37.4133 15.4646C58.2362 15.4646 75.681 -8.75278 80.0812 -8.75278C84.4814 -8.75278 72.8079 26.8879 39.9498 26.8879C7.0917 26.8879 -6.51608 -4.78329 -3.16165 -6.76804Z"></path>
  <path fill="#007FCD" transform="matrix(0.45 0 0 0.45 33.2706 21.4095)" d="M-3.16165 -6.76804C0.192776 -8.75278 16.5903 15.4646 37.4133 15.4646C58.2362 15.4646 75.681 -8.75278 80.0812 -8.75278C84.4814 -8.75278 72.8079 26.8879 39.9498 26.8879C7.0917 26.8879 -6.51608 -4.78329 -3.16165 -6.76804Z"></path>
  <path fill="#6BBCFF" transform="matrix(0.449987 -0.00346277 0.00346277 0.449987 11.971 -1.96205)" d="M4.61008 4.719C5.72819 3.55923 -0.681767 4.89983 0.433849 1.89423C2.07966 -2.53977 11.0705 -11.4829 11.0705 -11.4829L15.6781 -16.7606L22.9904 -32.8627C22.9904 -32.8627 28.4332 -47.8316 27.3446 -50.457C26.2561 -53.0823 22.4738 -61.6507 23.5623 -62.8865C24.6509 -64.1224 27.3446 -64.1989 27.3446 -65.9019C27.3446 -67.6048 26.0056 -74.1196 28.4333 -75.6495C30.861 -77.1795 37.4894 -74.6646 37.4894 -74.6646C37.4894 -74.6646 43.0153 -72.7137 44.6747 -71.1453C46.3342 -69.577 47.1678 -67.6048 50.273 -67.6048C53.3783 -67.6048 55.2139 -70.2045 59.4405 -71.7728C63.667 -73.3412 70.4017 -78.3997 70.4017 -78.3997L69.0192 -74.1196L79.7857 -78.3997L78.0816 -74.4822L89.51 -78.3997L88.1885 -74.6646C88.1885 -74.6646 101.698 -75.6495 101.698 -75.6495C101.698 -75.6495 99.1097 -73.3412 99.1097 -73.3412C99.1097 -73.3412 103.356 -70.9452 105.28 -72.7137C107.203 -74.4822 112.972 -79.7876 112.972 -79.7876L118.311 -79.7876C118.311 -79.7876 123.8 -74.4166 123.8 -72.7137C123.8 -71.0107 126.346 -65.9019 126.346 -65.9019L134.777 -39.2786C134.777 -39.2786 139.328 -25.0214 143.807 -20.8191C148.287 -16.6167 160.17 -3.86641 160.17 -3.86641C160.17 -3.86641 161.475 -1.10395 160.418 -1.10395C159.361 -1.10395 156.664 -2.246 156.303 -1.74709C155.942 -1.24818 157.076 0.522187 157.076 0.522187C157.076 0.522187 160.645 4.719 160.971 6.69311C161.297 8.66721 162.409 13.9741 161.475 13.2976C160.54 12.6211 157.737 8.4101 157.737 10.4428C157.737 12.4754 159.313 16.5028 158.869 19.3331C158.425 22.1634 157.201 26.6245 154.768 27.9083C152.335 29.1921 151.612 28.8669 150.051 30.4845C148.49 32.1021 148.809 34.1081 143.807 36.9548C138.805 39.8014 126.346 47.4118 124.743 49.1234C123.14 50.835 118.311 55.6094 118.311 55.6094L107.476 64.2306C107.476 64.2306 99.8926 68.1695 97.703 68.5577C95.5135 68.9459 92.3238 69.3341 88.1885 69.3341C84.0533 69.3341 77.3076 67.1841 73.8547 66.0612C70.4017 64.9383 60.3403 59.7391 60.3403 59.7391L50.273 52.7454C50.273 52.7454 45.7203 48.8232 42.9161 48.3414C40.1119 47.8596 33.8763 47.536 31.6992 46.4142C29.522 45.2924 22.9904 41.927 22.9904 41.927L15.6781 36.9548L14.2886 36.9548L10.4576 32.454L6.70921 27.9083L5.72734 20.7989C5.72734 20.7989 5.50185 16.4544 5.05596 17.1848C4.61008 17.9152 3.27241 20.1062 3.27241 20.1062C3.27241 20.1062 1.83032 22.8448 1.56059 20.7989C1.29086 18.753 1.29086 11.112 1.29086 11.112C1.29086 11.112 1.84246 7.58973 4.61008 4.719Z"></path>
  <path fill="none" stroke="#153C5D" stroke-width="2" stroke-linejoin="round" transform="matrix(0.449987 -0.00346277 0.00346277 0.449987 11.971 -1.96205)" d="M4.61008 4.719C5.72819 3.55923 -0.681767 4.89983 0.433849 1.89423C2.07966 -2.53977 11.0705 -11.4829 11.0705 -11.4829L15.6781 -16.7606L22.9904 -32.8627C22.9904 -32.8627 28.4332 -47.8316 27.3446 -50.457C26.2561 -53.0823 22.4738 -61.6507 23.5623 -62.8865C24.6509 -64.1224 27.3446 -64.1989 27.3446 -65.9019C27.3446 -67.6048 26.0056 -74.1196 28.4333 -75.6495C30.861 -77.1795 37.4894 -74.6646 37.4894 -74.6646C37.4894 -74.6646 43.0153 -72.7137 44.6747 -71.1453C46.3342 -69.577 47.1678 -67.6048 50.273 -67.6048C53.3783 -67.6048 55.2139 -70.2045 59.4405 -71.7728C63.667 -73.3412 70.4017 -78.3997 70.4017 -78.3997L69.0192 -74.1196L79.7857 -78.3997L78.0816 -74.4822L89.51 -78.3997L88.1885 -74.6646C88.1885 -74.6646 101.698 -75.6495 101.698 -75.6495C101.698 -75.6495 99.1097 -73.3412 99.1097 -73.3412C99.1097 -73.3412 103.356 -70.9452 105.28 -72.7137C107.203 -74.4822 112.972 -79.7876 112.972 -79.7876L118.311 -79.7876C118.311 -79.7876 123.8 -74.4166 123.8 -72.7137C123.8 -71.0107 126.346 -65.9019 126.346 -65.9019L134.777 -39.2786C134.777 -39.2786 139.328 -25.0214 143.807 -20.8191C148.287 -16.6167 160.17 -3.86641 160.17 -3.86641C160.17 -3.86641 161.475 -1.10395 160.418 -1.10395C159.361 -1.10395 156.664 -2.246 156.303 -1.74709C155.942 -1.24818 157.076 0.522187 157.076 0.522187C157.076 0.522187 160.645 4.719 160.971 6.69311C161.297 8.66721 162.409 13.9741 161.475 13.2976C160.54 12.6211 157.737 8.4101 157.737 10.4428C157.737 12.4754 159.313 16.5028 158.869 19.3331C158.425 22.1634 157.201 26.6245 154.768 27.9083C152.335 29.1921 151.612 28.8669 150.051 30.4845C148.49 32.1021 148.809 34.1081 143.807 36.9548C138.805 39.8014 126.346 47.4118 124.743 49.1234C123.14 50.835 118.311 55.6094 118.311 55.6094L107.476 64.2306C107.476 64.2306 99.8926 68.1695 97.703 68.5577C95.5135 68.9459 92.3238 69.3341 88.1885 69.3341C84.0533 69.3341 77.3076 67.1841 73.8547 66.0612C70.4017 64.9383 60.3403 59.7391 60.3403 59.7391L50.273 52.7454C50.273 52.7454 45.7203 48.8232 42.9161 48.3414C40.1119 47.8596 33.8763 47.536 31.6992 46.4142C29.522 45.2924 22.9904 41.927 22.9904 41.927L15.6781 36.9548L14.2886 36.9548L10.4576 32.454L6.70921 27.9083L5.72734 20.7989C5.72734 20.7989 5.50185 16.4544 5.05596 17.1848C4.61008 17.9152 3.27241 20.1062 3.27241 20.1062C3.27241 20.1062 1.83032 22.8448 1.56059 20.7989C1.29086 18.753 1.29086 11.112 1.29086 11.112C1.29086 11.112 1.84246 7.58973 4.61008 4.719Z"></path>
  <path transform="matrix(0.449987 -0.00346277 0.00456945 0.593799 38.2132 -9.3642)" d="M-7.62939e-06 -14C9.38883 -14 17 -7.73199 17 -9.53674e-07C17 7.73199 9.38883 14 -7.62939e-06 14C-9.38885 14 -17 7.73199 -17 -9.53674e-07C-17 -7.73199 -9.38885 -14 -7.62939e-06 -14Z"></path>
  <path fill="#6DB1E8" transform="matrix(0.361302 1.86938e-10 -1.2916e-10 0.249632 38.1493 -1.38143)" d="M0.673706 -5.1581C11.0739 -5.1581 23.2268 -12.5978 16 -8.88178e-16C10.9002 4.71129 8.83656 6.0068 0 6.0068C-8.83656 6.0068 -9.12738 5.59579 -15.5 -0.411011C-22.5215 -12.0594 -8.95367 -5.1581 0.673706 -5.1581Z"></path>
  <path fill="#61A3D8" transform="matrix(0.434461 0.181362 -0.191756 0.411836 54.3651 1.20397)" d="M7.62939e-06 -23.6275C8.63325 -23.6275 15.6319 -13.0491 15.6319 3.34883e-06C15.6319 13.0491 8.63325 23.6275 7.62939e-06 23.6275C-8.63323 23.6275 -15.6319 13.0491 -15.6319 4.28056e-06C-15.6319 -13.0491 -8.63323 -23.6275 7.62939e-06 -23.6275Z"></path>
  <path fill="#61A3D8" transform="matrix(0.375018 -0.276377 0.291356 0.35513 59.4768 0.955206)" d="M7.62939e-06 -23.2099C9.08313 -23.2099 16.4464 -12.8185 16.4464 1.52588e-05C16.4464 12.8185 9.08313 23.2099 7.62939e-06 23.2099C-9.08311 23.2099 -16.4464 12.8185 -16.4464 1.52588e-05C-16.4464 -12.8185 -9.08311 -23.2099 7.62939e-06 -23.2099Z"></path>
  <path fill="#4185BC" transform="matrix(0.471783 0.0510791 -0.0542962 0.447093 57.2513 -3.56755)" d="M-7.54771e-06 -11.7286C9.10939 -11.7286 16.494 -6.81996 16.494 -0.7649C16.494 5.29016 9.10939 10.1988 -7.71108e-06 10.1988C-9.10941 10.1988 -16.494 5.29016 -16.494 -0.7649C-16.494 -6.81996 -9.10941 -11.7286 -7.54771e-06 -11.7286Z"></path>
  <path fill="#254F71" transform="matrix(0.329102 -0.315879 0.337815 0.316016 62.886 -1.67883)" d="M0 -2.50001C2.20914 -2.50001 4 -1.38072 4 -7.7486e-06C4 1.3807 2.20914 2.49999 0 2.49999C-2.20914 2.49999 -4 1.3807 -4 -7.51019e-06C-4 -1.38072 -2.20914 -2.50001 0 -2.50001Z"></path>
  <path fill="#254F71" transform="matrix(-0.370918 -0.270509 0.289843 -0.356696 53.2191 -1.62001)" d="M2.28882e-05 -3.05566C2.6068 -3.05566 4.72001 -1.68759 4.72001 1.52588e-05C4.72001 1.68762 2.6068 3.05569 2.28882e-05 3.05569C-2.60675 3.05569 -4.71996 1.68762 -4.71996 1.52588e-05C-4.71996 -1.68759 -2.60675 -3.05566 2.28882e-05 -3.05566Z"></path>
  <path fill="#254F71" transform="matrix(0.474884 -0.00365437 0.003416 0.443909 47.0466 7.44333)" d="M7.62939e-06 1.2229e-05L3.2842 4.57597C3.2842 4.57597 6.95549 6.9441 9.95202 6.90314C12.9485 6.86217 19.5798 3.63444 19.5798 3.63444L22.7733 1.73648L23.9632 1.17074L23.9632 -5.98758C23.9632 -5.98758 23.5665 -11.3639 24.5179 -11.356C25.4693 -11.3482 25.617 -9.30771 25.617 -9.30771L25.617 -4.43114L25.617 0.381145L26.5237 1.73648L29.8296 3.63444L32.4888 4.55682L35.4143 4.55682L37.6852 3.63444L40.084 2.45235L43.0678 -1.28001L44.3396 -4.74001C44.3396 -4.74001 44.3646 -8.17113 44.3761 -9.73771C46.4969 -9.13814 46.015 -5.80849 46.015 -5.80849L45.6035 -2.94544L44.3025 0.359802L42.3889 2.69622L39.6279 5.19095L37.6852 6.30465L35.0789 6.90314C35.0789 6.90314 29.1154 6.8644 27.8442 6.22365C26.573 5.58289 23.8937 3.66997 22.7583 3.80967C21.623 3.94938 17.9263 6.90314 17.9263 6.90314L14.9048 7.98843L11.287 8.64098L8.48316 8.64098L5.67425 7.98843L3.27178 6.30465L0.959117 4.55682L7.62939e-06 2.12682L7.62939e-06 1.2229e-05Z"></path>
  <path fill="#DE7975" fill-opacity="0.2" transform="matrix(0.428776 0.136568 -0.136568 0.428776 29.0129 2.31269)" d="M3.62098e-06 -6.5C6.62742 -6.5 12 -3.58985 12 -3.57628e-07C12 3.58985 6.62742 6.5 4.00841e-06 6.5C-6.62741 6.5 -12 3.58985 -12 3.57628e-07C-12 -3.58985 -6.62741 -6.5 3.62098e-06 -6.5Z"></path>
  <path fill="#DE7975" fill-opacity="0.2" transform="matrix(0.349113 -0.283936 0.283936 0.349113 76.3277 -1.33226)" d="M-2.14975e-07 -7.21339C5.37073 -7.21339 9.72457 -3.98385 9.72457 -7.91921e-06C9.72457 3.98383 5.37073 7.21337 2.14975e-07 7.21337C-5.37073 7.21337 -9.72457 3.98383 -9.72457 -7.33958e-06C-9.72457 -3.98385 -5.37073 -7.21339 -2.14975e-07 -7.21339Z"></path>
  <path fill="#518FC3" fill-opacity="0.3019608" transform="matrix(0.449987 -0.00346277 0.00346277 0.449987 70.1751 17.8407)" d="M1.90039 -1.80093C1.90039 -1.80093 -9.11709 5.31032 -22.3817 4.79949C-35.6463 4.28865 -48.1222 2.95837 -70.559 0.915021C-92.9958 -1.12832 -102.494 -9.42166 -102.494 -9.42166L-115.489 -22.2537L-118.684 -29.3569C-118.684 -29.3569 -122.046 -40.7251 -123.39 -39.8191C-124.734 -38.9131 -126.801 -35.8087 -126.801 -35.8087L-126.801 -26.316L-123.39 -29.412L-121.033 -17.4261L-114.554 -9.42166L-103.493 -3.28915L-95.6971 0.915021L-85.5879 1.94498L-72.5224 10.6294L-54.4022 20.6352L-39.7245 23.4107L-30.9567 22.4166L-20.2546 17.1847L1.90039 -1.80093Z"></path>
  <path fill="#151515" transform="matrix(0.369872 0 0 0.45 72.9809 44.0048)" d="M0.514404 -8.06063C2.4525 -11.4627 1.32926 15.5654 2.25267 37.8114C2.99956 55.8047 3.67434 61.5334 0.160096 67C-0.645599 71.4356 -22.0792 72.3179 -22.0792 72.3179C-22.0792 72.3179 -10.3814 58.8548 -6.09442 37.8114C-2.08514 18.1311 -3.59118 -0.853915 0.514404 -8.06063Z"></path>
  <path fill="#DDD" transform="matrix(0.369872 0 0 0.45 72.9809 44.0048)" d="M0.514404 -8.06063C2.4525 -11.4627 1.32926 15.5654 2.25267 37.8114C2.99956 55.8047 3.67434 61.5334 0.160096 67C-0.645599 71.4356 -22.0792 72.3179 -22.0792 72.3179C-22.0792 72.3179 -10.3814 58.8548 -6.09442 37.8114C-2.08514 18.1311 -3.59118 -0.853915 0.514404 -8.06063Z"></path>
  <path fill="none" stroke="white" stroke-width="0.2" stroke-linejoin="round" transform="matrix(0.369872 0 0 0.45 72.9809 44.0048)" d="M0.514404 -8.06063C-3.59118 -0.853915 -2.08514 18.1311 -6.09442 37.8114C-10.3814 58.8548 -22.0792 72.3179 -22.0792 72.3179C-22.0792 72.3179 -0.645599 71.4356 0.160096 67C3.67434 61.5334 2.99956 55.8047 2.25267 37.8114C1.32926 15.5654 2.4525 -11.4627 0.514404 -8.06063Z"></path>
  <path fill="#007FCD" transform="matrix(0.369872 0 0 0.45 72.9809 44.0048)" d="M0.514404 -8.06063C2.4525 -11.4627 1.32926 15.5654 2.25267 37.8114C2.99956 55.8047 3.67434 61.5334 0.160096 67C-0.645599 71.4356 -22.0792 72.3179 -22.0792 72.3179C-22.0792 72.3179 -10.3814 58.8548 -6.09442 37.8114C-2.08514 18.1311 -3.59118 -0.853915 0.514404 -8.06063Z"></path>
  <path fill="none" stroke="#007FCD" stroke-width="0.2" stroke-linejoin="round" transform="matrix(0.369872 0 0 0.45 72.9809 44.0048)" d="M0.514404 -8.06063C-3.59118 -0.853915 -2.08514 18.1311 -6.09442 37.8114C-10.3814 58.8548 -22.0792 72.3179 -22.0792 72.3179C-22.0792 72.3179 -0.645599 71.4356 0.160096 67C3.67434 61.5334 2.99956 55.8047 2.25267 37.8114C1.32926 15.5654 2.4525 -11.4627 0.514404 -8.06063Z"></path>
  <path fill="#151515" transform="matrix(-0.369 -3.2259e-08 -3.93403e-08 0.45 25.382 44.0048)" d="M0.514404 -8.06065C2.4525 -11.4627 1.32926 15.5654 2.25267 37.8114C2.99956 55.8047 3.67434 61.5334 0.160096 67C-0.645599 71.4356 -22.0792 72.3179 -22.0792 72.3179C-22.0792 72.3179 -10.3814 58.8548 -6.09442 37.8114C-2.08514 18.1311 -3.59118 -0.85393 0.514404 -8.06065Z"></path>
  <path fill="#DDD" transform="matrix(-0.369 -3.2259e-08 -3.93403e-08 0.45 25.382 44.0048)" d="M0.514404 -8.06065C2.4525 -11.4627 1.32926 15.5654 2.25267 37.8114C2.99956 55.8047 3.67434 61.5334 0.160096 67C-0.645599 71.4356 -22.0792 72.3179 -22.0792 72.3179C-22.0792 72.3179 -10.3814 58.8548 -6.09442 37.8114C-2.08514 18.1311 -3.59118 -0.85393 0.514404 -8.06065Z"></path>
  <path fill="none" stroke="white" stroke-width="0.2" stroke-linejoin="round" transform="matrix(-0.369 -3.2259e-08 -3.93403e-08 0.45 25.382 44.0048)" d="M0.514404 -8.06065C-3.59118 -0.85393 -2.08514 18.1311 -6.09442 37.8114C-10.3814 58.8548 -22.0792 72.3179 -22.0792 72.3179C-22.0792 72.3179 -0.645599 71.4356 0.160096 67C3.67434 61.5334 2.99956 55.8047 2.25267 37.8114C1.32926 15.5654 2.4525 -11.4627 0.514404 -8.06065Z"></path>
  <path fill="#007FCE" transform="matrix(-0.369 -3.2259e-08 -3.93403e-08 0.45 25.382 44.0048)" d="M0.514404 -8.06065C2.4525 -11.4627 1.32926 15.5654 2.25267 37.8114C2.99956 55.8047 3.67434 61.5334 0.160096 67C-0.645599 71.4356 -22.0792 72.3179 -22.0792 72.3179C-22.0792 72.3179 -10.3814 58.8548 -6.09442 37.8114C-2.08514 18.1311 -3.59118 -0.85393 0.514404 -8.06065Z"></path>
  <path fill="none" stroke="#007FCD" stroke-width="0.2" stroke-linejoin="round" transform="matrix(-0.369 -3.2259e-08 -3.93403e-08 0.45 25.382 44.0048)" d="M0.514404 -8.06065C-3.59118 -0.85393 -2.08514 18.1311 -6.09442 37.8114C-10.3814 58.8548 -22.0792 72.3179 -22.0792 72.3179C-22.0792 72.3179 -0.645599 71.4356 0.160096 67C3.67434 61.5334 2.99956 55.8047 2.25267 37.8114C1.32926 15.5654 2.4525 -11.4627 0.514404 -8.06065Z"></path>
  <path fill="none" stroke="black" stroke-width="1" stroke-linecap="round" stroke-linejoin="round" transform="matrix(0.146801 0.0850618 -0.139617 0.240952 8.73196 36.5798)" d="M0 -1.52588e-05C0 -1.52588e-05 36.4704 6.09328 53.6468 6.09328C70.8233 6.09325 107.407 -3.05176e-05 107.407 -3.05176e-05"></path>
  <path fill="none" stroke="black" stroke-width="1" stroke-linecap="round" stroke-linejoin="round" transform="matrix(0.150988 -0.0773862 0.127018 0.247825 73.307 44.9048)" d="M0 1.52588e-05C0 1.52588e-05 36.4704 6.09331 53.6469 6.09331C70.8233 6.09329 107.407 0 107.407 0"></path>
  <path fill="none" stroke="black" stroke-width="1" stroke-linecap="round" stroke-linejoin="round" transform="matrix(0.445026 -0.00656618 0.00421616 0.285752 25.382 74.1548)" d="M-3.8147e-06 -1.23933e-05C-3.8147e-06 -1.23933e-05 36.4704 6.09329 53.6469 6.09329C70.8233 6.09329 107.407 -1.21933e-05 107.407 -1.21933e-05"></path>
</svg>