<svg width="28" height="28" viewBox="0 0 28 28" fill="none" xmlns="http://www.w3.org/2000/svg">
<rect width="28" height="28" fill="white"/>
<path d="M1 25H26V7L1 25Z" fill="#CABDA2"/>
<mask id="path-3-outside-1_925_398" maskUnits="userSpaceOnUse" x="3" y="5" width="22" height="10" fill="black">
<rect fill="white" x="3" y="5" width="22" height="10"/>
<path d="M3.823 14V6.125H4.80737V9.57031H12.0261V6.125H13.0105V14H12.0261V10.3906H4.80737V14H3.823ZM14.6716 10.165V9.95996C14.6716 9.2627 14.7058 8.67822 14.7742 8.20654C14.8425 7.73145 14.9604 7.34521 15.1279 7.04785C15.2954 6.75049 15.5227 6.52319 15.8098 6.36597C16.1003 6.20874 16.4644 6.10278 16.9019 6.0481C17.3394 5.98999 17.8657 5.96094 18.481 5.96094H20.4087C21.2153 5.96094 21.8699 5.9917 22.3723 6.05322C22.8782 6.11475 23.2661 6.23267 23.5361 6.40698C23.8096 6.5813 23.9976 6.83594 24.1001 7.1709C24.2026 7.50244 24.2539 7.93823 24.2539 8.47827H23.2695C23.2695 8.07153 23.2336 7.75537 23.1619 7.52979C23.0901 7.30078 22.9551 7.13672 22.7568 7.0376C22.5586 6.93506 22.2698 6.87183 21.8904 6.8479C21.5144 6.82397 21.0205 6.81201 20.4087 6.81201H18.481C17.9922 6.81201 17.5803 6.82739 17.2454 6.85815C16.9104 6.8855 16.637 6.95215 16.425 7.05811C16.2166 7.16064 16.0559 7.32471 15.9431 7.55029C15.8337 7.77588 15.7585 8.0835 15.7175 8.47314C15.6765 8.86279 15.656 9.3584 15.656 9.95996V10.165C15.656 10.7461 15.6765 11.228 15.7175 11.6108C15.7585 11.9937 15.8337 12.2996 15.9431 12.5286C16.0559 12.7576 16.2166 12.9285 16.425 13.0413C16.637 13.1541 16.9104 13.2275 17.2454 13.2617C17.5803 13.2959 17.9922 13.313 18.481 13.313H20.7522C21.3162 13.313 21.7708 13.2908 22.116 13.2463C22.4612 13.1985 22.7227 13.0994 22.9004 12.949C23.0815 12.7952 23.2029 12.5627 23.2644 12.2517C23.3259 11.9373 23.3567 11.5134 23.3567 10.9802V10.6777H19.5884V9.85742H24.3411V10.9802C24.3411 11.6467 24.2847 12.1885 24.1719 12.6055C24.0591 13.0225 23.8677 13.3455 23.5977 13.5745C23.3311 13.8 22.9653 13.9539 22.5005 14.0359C22.0391 14.1213 21.4563 14.1641 20.7522 14.1641H18.481C17.7119 14.1641 17.0796 14.1111 16.584 14.0051C16.0884 13.9026 15.7004 13.7112 15.4202 13.4309C15.1433 13.1506 14.9485 12.7473 14.8357 12.2209C14.7263 11.6946 14.6716 11.0093 14.6716 10.165Z"/>
</mask>
<path d="M3.823 14V6.125H4.80737V9.57031H12.0261V6.125H13.0105V14H12.0261V10.3906H4.80737V14H3.823ZM14.6716 10.165V9.95996C14.6716 9.2627 14.7058 8.67822 14.7742 8.20654C14.8425 7.73145 14.9604 7.34521 15.1279 7.04785C15.2954 6.75049 15.5227 6.52319 15.8098 6.36597C16.1003 6.20874 16.4644 6.10278 16.9019 6.0481C17.3394 5.98999 17.8657 5.96094 18.481 5.96094H20.4087C21.2153 5.96094 21.8699 5.9917 22.3723 6.05322C22.8782 6.11475 23.2661 6.23267 23.5361 6.40698C23.8096 6.5813 23.9976 6.83594 24.1001 7.1709C24.2026 7.50244 24.2539 7.93823 24.2539 8.47827H23.2695C23.2695 8.07153 23.2336 7.75537 23.1619 7.52979C23.0901 7.30078 22.9551 7.13672 22.7568 7.0376C22.5586 6.93506 22.2698 6.87183 21.8904 6.8479C21.5144 6.82397 21.0205 6.81201 20.4087 6.81201H18.481C17.9922 6.81201 17.5803 6.82739 17.2454 6.85815C16.9104 6.8855 16.637 6.95215 16.425 7.05811C16.2166 7.16064 16.0559 7.32471 15.9431 7.55029C15.8337 7.77588 15.7585 8.0835 15.7175 8.47314C15.6765 8.86279 15.656 9.3584 15.656 9.95996V10.165C15.656 10.7461 15.6765 11.228 15.7175 11.6108C15.7585 11.9937 15.8337 12.2996 15.9431 12.5286C16.0559 12.7576 16.2166 12.9285 16.425 13.0413C16.637 13.1541 16.9104 13.2275 17.2454 13.2617C17.5803 13.2959 17.9922 13.313 18.481 13.313H20.7522C21.3162 13.313 21.7708 13.2908 22.116 13.2463C22.4612 13.1985 22.7227 13.0994 22.9004 12.949C23.0815 12.7952 23.2029 12.5627 23.2644 12.2517C23.3259 11.9373 23.3567 11.5134 23.3567 10.9802V10.6777H19.5884V9.85742H24.3411V10.9802C24.3411 11.6467 24.2847 12.1885 24.1719 12.6055C24.0591 13.0225 23.8677 13.3455 23.5977 13.5745C23.3311 13.8 22.9653 13.9539 22.5005 14.0359C22.0391 14.1213 21.4563 14.1641 20.7522 14.1641H18.481C17.7119 14.1641 17.0796 14.1111 16.584 14.0051C16.0884 13.9026 15.7004 13.7112 15.4202 13.4309C15.1433 13.1506 14.9485 12.7473 14.8357 12.2209C14.7263 11.6946 14.6716 11.0093 14.6716 10.165Z" fill="black"/>
<path d="M3.823 14H3.423V14.4H3.823V14ZM3.823 6.125V5.725H3.423V6.125H3.823ZM4.80737 6.125H5.20737V5.725H4.80737V6.125ZM4.80737 9.57031H4.40737V9.97031H4.80737V9.57031ZM12.0261 9.57031V9.97031H12.4261V9.57031H12.0261ZM12.0261 6.125V5.725H11.6261V6.125H12.0261ZM13.0105 6.125H13.4105V5.725H13.0105V6.125ZM13.0105 14V14.4H13.4105V14H13.0105ZM12.0261 14H11.6261V14.4H12.0261V14ZM12.0261 10.3906H12.4261V9.99062H12.0261V10.3906ZM4.80737 10.3906V9.99062H4.40737V10.3906H4.80737ZM4.80737 14V14.4H5.20737V14H4.80737ZM3.823 14H4.223V6.125H3.823H3.423V14H3.823ZM3.823 6.125V6.525H4.80737V6.125V5.725H3.823V6.125ZM4.80737 6.125H4.40737V9.57031H4.80737H5.20737V6.125H4.80737ZM4.80737 9.57031V9.97031H12.0261V9.57031V9.17031H4.80737V9.57031ZM12.0261 9.57031H12.4261V6.125H12.0261H11.6261V9.57031H12.0261ZM12.0261 6.125V6.525H13.0105V6.125V5.725H12.0261V6.125ZM13.0105 6.125H12.6105V14H13.0105H13.4105V6.125H13.0105ZM13.0105 14V13.6H12.0261V14V14.4H13.0105V14ZM12.0261 14H12.4261V10.3906H12.0261H11.6261V14H12.0261ZM12.0261 10.3906V9.99062H4.80737V10.3906V10.7906H12.0261V10.3906ZM4.80737 10.3906H4.40737V14H4.80737H5.20737V10.3906H4.80737ZM4.80737 14V13.6H3.823V14V14.4H4.80737V14ZM14.7742 8.20654L15.17 8.26391L15.1701 8.26351L14.7742 8.20654ZM15.8098 6.36597L15.6194 6.01417L15.6177 6.01513L15.8098 6.36597ZM16.9019 6.0481L16.9515 6.44502L16.9545 6.44461L16.9019 6.0481ZM22.3723 6.05322L22.3237 6.45026L22.324 6.4503L22.3723 6.05322ZM23.5361 6.40698L23.3192 6.74304L23.3211 6.74427L23.5361 6.40698ZM24.1001 7.1709L23.7176 7.28798L23.718 7.28909L24.1001 7.1709ZM24.2539 8.47827V8.87827H24.6539V8.47827H24.2539ZM23.2695 8.47827H22.8695V8.87827H23.2695V8.47827ZM23.1619 7.52979L22.7802 7.64942L22.7807 7.65107L23.1619 7.52979ZM22.7568 7.0376L22.573 7.39292L22.5779 7.39537L22.7568 7.0376ZM21.8904 6.8479L21.865 7.24709L21.8652 7.24711L21.8904 6.8479ZM17.2454 6.85815L17.2779 7.25685L17.2819 7.25648L17.2454 6.85815ZM16.425 7.05811L16.6016 7.41705L16.6039 7.41588L16.425 7.05811ZM15.9431 7.55029L15.5853 7.37139L15.5832 7.37578L15.9431 7.55029ZM15.9431 12.5286L15.5821 12.701L15.5843 12.7053L15.9431 12.5286ZM16.425 13.0413L16.2347 13.3931L16.2371 13.3944L16.425 13.0413ZM22.116 13.2463L22.167 13.6431L22.1709 13.6425L22.116 13.2463ZM22.9004 12.949L23.1588 13.2543L23.1593 13.2539L22.9004 12.949ZM23.2644 12.2517L23.6568 12.3293L23.657 12.3285L23.2644 12.2517ZM23.3567 10.6777H23.7567V10.2777H23.3567V10.6777ZM19.5884 10.6777H19.1884V11.0777H19.5884V10.6777ZM19.5884 9.85742V9.45742H19.1884V9.85742H19.5884ZM24.3411 9.85742H24.7411V9.45742H24.3411V9.85742ZM23.5977 13.5745L23.856 13.8798L23.8564 13.8795L23.5977 13.5745ZM22.5005 14.0359L22.431 13.642L22.4277 13.6426L22.5005 14.0359ZM16.584 14.0051L16.6676 13.614L16.665 13.6134L16.584 14.0051ZM15.4202 13.4309L15.1356 13.712L15.1373 13.7138L15.4202 13.4309ZM14.8357 12.2209L14.4441 12.3023L14.4446 12.3048L14.8357 12.2209ZM14.6716 10.165H15.0716V9.95996H14.6716H14.2716V10.165H14.6716ZM14.6716 9.95996H15.0716C15.0716 9.27397 15.1054 8.7101 15.17 8.26391L14.7742 8.20654L14.3783 8.14917C14.3063 8.64635 14.2716 9.25142 14.2716 9.95996H14.6716ZM14.7742 8.20654L15.1701 8.26351C15.2341 7.81899 15.341 7.48472 15.4765 7.24415L15.1279 7.04785L14.7794 6.85156C14.5799 7.20571 14.451 7.6439 14.3782 8.14958L14.7742 8.20654ZM15.1279 7.04785L15.4765 7.24415C15.6089 7.00898 15.7832 6.83657 16.0019 6.71681L15.8098 6.36597L15.6177 6.01513C15.2622 6.20982 14.9819 6.49199 14.7794 6.85156L15.1279 7.04785ZM15.8098 6.36597L16.0002 6.71776C16.2351 6.59064 16.5477 6.49547 16.9515 6.44501L16.9019 6.0481L16.8522 5.65118C16.381 5.71009 15.9656 5.82684 15.6194 6.01418L15.8098 6.36597ZM16.9019 6.0481L16.9545 6.44461C17.3693 6.38953 17.877 6.36094 18.481 6.36094V5.96094V5.56094C17.8544 5.56094 17.3094 5.59045 16.8492 5.65158L16.9019 6.0481ZM18.481 5.96094V6.36094H20.4087V5.96094V5.56094H18.481V5.96094ZM20.4087 5.96094V6.36094C21.2074 6.36094 21.8439 6.39151 22.3237 6.45026L22.3723 6.05322L22.4209 5.65619C21.8958 5.59189 21.2233 5.56094 20.4087 5.56094V5.96094ZM22.3723 6.05322L22.324 6.4503C22.8012 6.50834 23.1213 6.61526 23.3192 6.74304L23.5361 6.40698L23.7531 6.07093C23.411 5.85007 22.9551 5.72116 22.4206 5.65615L22.3723 6.05322ZM23.5361 6.40698L23.3211 6.74427C23.5076 6.86318 23.6405 7.03613 23.7176 7.28798L24.1001 7.1709L24.4826 7.05381C24.3546 6.63575 24.1115 6.29942 23.7512 6.06969L23.5361 6.40698ZM24.1001 7.1709L23.718 7.28909C23.804 7.56726 23.8539 7.95865 23.8539 8.47827H24.2539H24.6539C24.6539 7.91782 24.6013 7.43762 24.4822 7.05271L24.1001 7.1709ZM24.2539 8.47827V8.07827H23.2695V8.47827V8.87827H24.2539V8.47827ZM23.2695 8.47827H23.6695C23.6695 8.05542 23.6331 7.6916 23.543 7.4085L23.1619 7.52979L22.7807 7.65107C22.8342 7.81914 22.8695 8.08765 22.8695 8.47827H23.2695ZM23.1619 7.52979L23.5436 7.41015C23.4423 7.08705 23.2397 6.8318 22.9357 6.67983L22.7568 7.0376L22.5779 7.39537C22.6705 7.44164 22.7379 7.51451 22.7802 7.64942L23.1619 7.52979ZM22.7568 7.0376L22.9406 6.68231C22.6701 6.5424 22.3167 6.47399 21.9156 6.44869L21.8904 6.8479L21.8652 7.24711C22.2228 7.26966 22.4471 7.32771 22.5731 7.39288L22.7568 7.0376ZM21.8904 6.8479L21.9158 6.44871C21.5278 6.42402 21.0245 6.41201 20.4087 6.41201V6.81201V7.21201C21.0165 7.21201 21.501 7.22393 21.865 7.24709L21.8904 6.8479ZM20.4087 6.81201V6.41201H18.481V6.81201V7.21201H20.4087V6.81201ZM18.481 6.81201V6.41201C17.9849 6.41201 17.56 6.42758 17.2088 6.45983L17.2454 6.85815L17.2819 7.25648C17.6007 7.22721 17.9995 7.21201 18.481 7.21201V6.81201ZM17.2454 6.85815L17.2128 6.45948C16.8466 6.48938 16.5186 6.56409 16.2462 6.70033L16.425 7.05811L16.6039 7.41588C16.7553 7.3402 16.9742 7.28162 17.2779 7.25683L17.2454 6.85815ZM16.425 7.05811L16.2485 6.69917C15.9547 6.84366 15.7337 7.0747 15.5853 7.37141L15.9431 7.55029L16.3009 7.72918C16.3781 7.57471 16.4784 7.47763 16.6016 7.41705L16.425 7.05811ZM15.9431 7.55029L15.5832 7.37578C15.4455 7.65971 15.3632 8.0185 15.3197 8.43127L15.7175 8.47314L16.1153 8.51502C16.1539 8.14849 16.222 7.89204 16.303 7.7248L15.9431 7.55029ZM15.7175 8.47314L15.3197 8.43127C15.2767 8.84009 15.256 9.35096 15.256 9.95996H15.656H16.056C16.056 9.36584 16.0763 8.88549 16.1153 8.51502L15.7175 8.47314ZM15.656 9.95996H15.256V10.165H15.656H16.056V9.95996H15.656ZM15.656 10.165H15.256C15.256 10.754 15.2767 11.2513 15.3198 11.6535L15.7175 11.6108L16.1153 11.5682C16.0763 11.2047 16.056 10.7382 16.056 10.165H15.656ZM15.7175 11.6108L15.3198 11.6535C15.3634 12.0605 15.4459 12.4157 15.5822 12.701L15.9431 12.5286L16.3041 12.3562C16.2216 12.1834 16.1537 11.9268 16.1153 11.5682L15.7175 11.6108ZM15.9431 12.5286L15.5843 12.7053C15.7308 13.0027 15.9476 13.2377 16.2347 13.3931L16.425 13.0413L16.6154 12.6894C16.4855 12.6192 16.3811 12.5124 16.302 12.3518L15.9431 12.5286ZM16.425 13.0413L16.2371 13.3944C16.5092 13.5392 16.8375 13.6222 17.2048 13.6597L17.2454 13.2617L17.286 12.8638C16.9833 12.8329 16.7647 12.7689 16.613 12.6882L16.425 13.0413ZM17.2454 13.2617L17.2048 13.6597C17.5577 13.6957 17.9841 13.713 18.481 13.713V13.313V12.913C18.0003 12.913 17.6029 12.8961 17.286 12.8638L17.2454 13.2617ZM18.481 13.313V13.713H20.7522V13.313V12.913H18.481V13.313ZM20.7522 13.313V13.713C21.3242 13.713 21.7978 13.6906 22.167 13.6431L22.116 13.2463L22.0649 12.8496C21.7437 12.891 21.3082 12.913 20.7522 12.913V13.313ZM22.116 13.2463L22.1709 13.6425C22.5563 13.5891 22.9012 13.4723 23.1588 13.2543L22.9004 12.949L22.642 12.6436C22.5441 12.7265 22.366 12.8078 22.061 12.8501L22.116 13.2463ZM22.9004 12.949L23.1593 13.2539C23.4293 13.0246 23.5836 12.6994 23.6568 12.3293L23.2644 12.2517L22.872 12.1741C22.8222 12.4261 22.7338 12.5657 22.6415 12.6441L22.9004 12.949ZM23.2644 12.2517L23.657 12.3285C23.7256 11.9776 23.7567 11.5247 23.7567 10.9802H23.3567H22.9567C22.9567 11.5022 22.9262 11.8969 22.8718 12.1749L23.2644 12.2517ZM23.3567 10.9802H23.7567V10.6777H23.3567H22.9567V10.9802H23.3567ZM23.3567 10.6777V10.2777H19.5884V10.6777V11.0777H23.3567V10.6777ZM19.5884 10.6777H19.9884V9.85742H19.5884H19.1884V10.6777H19.5884ZM19.5884 9.85742V10.2574H24.3411V9.85742V9.45742H19.5884V9.85742ZM24.3411 9.85742H23.9411V10.9802H24.3411H24.7411V9.85742H24.3411ZM24.3411 10.9802H23.9411C23.9411 11.6283 23.8858 12.1312 23.7858 12.501L24.1719 12.6055L24.558 12.7099C24.6836 12.2457 24.7411 11.6651 24.7411 10.9802H24.3411ZM24.1719 12.6055L23.7858 12.501C23.6894 12.8572 23.5347 13.1034 23.3389 13.2694L23.5977 13.5745L23.8564 13.8795C24.2007 13.5875 24.4288 13.1877 24.558 12.7099L24.1719 12.6055ZM23.5977 13.5745L23.3393 13.2691C23.1424 13.4357 22.8497 13.5681 22.431 13.642L22.5005 14.0359L22.57 14.4298C23.0809 14.3396 23.5197 14.1644 23.856 13.8798L23.5977 13.5745ZM22.5005 14.0359L22.4277 13.6426C21.999 13.722 21.4427 13.7641 20.7522 13.7641V14.1641V14.5641C21.4699 14.5641 22.0792 14.5207 22.5733 14.4292L22.5005 14.0359ZM20.7522 14.1641V13.7641H18.481V14.1641V14.5641H20.7522V14.1641ZM18.481 14.1641V13.7641C17.7272 13.7641 17.1255 13.7119 16.6676 13.614L16.584 14.0051L16.5004 14.3963C17.0337 14.5103 17.6967 14.5641 18.481 14.5641V14.1641ZM16.584 14.0051L16.665 13.6134C16.2248 13.5224 15.9146 13.3597 15.703 13.1481L15.4202 13.4309L15.1373 13.7138C15.4862 14.0627 15.9519 14.2828 16.5029 14.3968L16.584 14.0051ZM15.4202 13.4309L15.7047 13.1498C15.4978 12.9403 15.3293 12.6154 15.2268 12.1371L14.8357 12.2209L14.4446 12.3048C14.5677 12.8793 14.7889 13.361 15.1356 13.712L15.4202 13.4309ZM14.8357 12.2209L15.2273 12.1396C15.1257 11.6506 15.0716 10.9955 15.0716 10.165H14.6716H14.2716C14.2716 11.023 14.3269 11.7385 14.4441 12.3023L14.8357 12.2209Z" fill="black" mask="url(#path-3-outside-1_925_398)"/>
<mask id="path-5-outside-2_925_398" maskUnits="userSpaceOnUse" x="3" y="17" width="22" height="6" fill="black">
<rect fill="white" x="3" y="17" width="22" height="6"/>
<path d="M5.12915 21V18.1109H3.51665V17.775H7.14477V18.1109H5.53227V21H5.12915ZM7.65288 21V18.5812H8.05601V18.9151C8.1008 18.8437 8.14559 18.7842 8.19038 18.7366C8.23657 18.689 8.29606 18.6512 8.36885 18.6232C8.44303 18.5952 8.54311 18.5757 8.66909 18.5645C8.79507 18.5519 8.96094 18.5456 9.1667 18.5456V18.8836C8.88955 18.8836 8.67469 18.8934 8.52212 18.913C8.37095 18.9326 8.26247 18.9662 8.19668 19.0138C8.13089 19.06 8.091 19.1243 8.077 19.2069C8.063 19.2895 8.05601 19.3945 8.05601 19.5219V21H7.65288ZM10.9577 21.0462C10.6679 21.0462 10.4286 21.0308 10.2396 21C10.052 20.9706 9.91206 20.9048 9.81968 20.8026C9.72869 20.7005 9.6832 20.5416 9.6832 20.326C9.6832 20.1063 9.7259 19.9453 9.81128 19.8431C9.89806 19.7395 10.0345 19.6723 10.2207 19.6416C10.4083 19.6108 10.6539 19.5954 10.9577 19.5954C11.204 19.5954 11.4105 19.601 11.5771 19.6122C11.7436 19.6234 11.8927 19.643 12.0243 19.6709C12.0215 19.4848 12.0089 19.3385 11.9865 19.2321C11.9641 19.1243 11.9221 19.0446 11.8605 18.9928C11.7989 18.941 11.7086 18.9081 11.5896 18.8941C11.4721 18.8787 11.3153 18.871 11.1193 18.871C10.8954 18.871 10.7197 18.8759 10.5923 18.8857C10.4664 18.8955 10.3747 18.913 10.3173 18.9382C10.2599 18.9634 10.2235 18.9998 10.2081 19.0474C10.1941 19.095 10.1871 19.1565 10.1871 19.2321H9.78398C9.78398 19.081 9.80428 18.9592 9.84487 18.8668C9.88687 18.7744 9.95755 18.7044 10.0569 18.6568C10.1563 18.6092 10.2921 18.5771 10.4643 18.5603C10.6378 18.5435 10.8562 18.5351 11.1193 18.5351C11.4021 18.5351 11.6295 18.5533 11.8017 18.5896C11.9753 18.626 12.1069 18.6918 12.1964 18.787C12.2874 18.8808 12.3483 19.0124 12.3791 19.1817C12.4113 19.3511 12.4274 19.5695 12.4274 19.8368V21H12.0243V20.8341C11.9767 20.8845 11.9109 20.9251 11.8269 20.9559C11.7429 20.9867 11.6309 21.0091 11.491 21.0231C11.3524 21.0385 11.1746 21.0462 10.9577 21.0462ZM10.9577 20.7187C11.197 20.7187 11.3881 20.7159 11.5309 20.7103C11.6736 20.7047 11.78 20.6893 11.85 20.6641C11.9214 20.6389 11.9683 20.5983 11.9907 20.5423C12.0131 20.4863 12.0243 20.4079 12.0243 20.3071V19.9355L10.9577 19.9229C10.7687 19.9201 10.6161 19.9229 10.5 19.9313C10.3852 19.9383 10.2977 19.9551 10.2375 19.9817C10.1773 20.0069 10.1367 20.0475 10.1157 20.1035C10.0961 20.1581 10.0863 20.2322 10.0863 20.326C10.0863 20.417 10.0961 20.4891 10.1157 20.5423C10.1367 20.5955 10.1773 20.6347 10.2375 20.6599C10.2977 20.6851 10.3852 20.7012 10.5 20.7082C10.6161 20.7152 10.7687 20.7187 10.9577 20.7187ZM12.9565 21V18.7156H13.3596V21H12.9565ZM12.9565 18.1781V17.775H13.3596V18.1781H12.9565ZM13.9055 21V18.5812H14.3086V18.9025C14.3688 18.8213 14.443 18.7534 14.5312 18.6988C14.6208 18.6442 14.7398 18.6036 14.8881 18.5771C15.0379 18.5491 15.2339 18.5351 15.476 18.5351C15.7924 18.5351 16.0415 18.5659 16.2235 18.6274C16.4069 18.689 16.537 18.7989 16.614 18.9571C16.691 19.1153 16.7295 19.3392 16.7295 19.629V21H16.3243V19.629C16.3243 19.4638 16.3103 19.3308 16.2823 19.23C16.2543 19.1292 16.206 19.053 16.1374 19.0012C16.0702 18.9494 15.9771 18.9151 15.8582 18.8983C15.7392 18.8801 15.588 18.871 15.4046 18.871C15.1247 18.871 14.9049 18.8941 14.7454 18.9403C14.5858 18.9865 14.4731 19.0593 14.4073 19.1586C14.3415 19.2566 14.3086 19.3847 14.3086 19.5429V21H13.9055ZM17.2607 21V18.7156H17.6638V21H17.2607ZM17.2607 18.1781V17.775H17.6638V18.1781H17.2607ZM18.2097 21V18.5812H18.6128V18.9025C18.673 18.8213 18.7472 18.7534 18.8354 18.6988C18.925 18.6442 19.044 18.6036 19.1923 18.5771C19.3421 18.5491 19.5381 18.5351 19.7802 18.5351C20.0966 18.5351 20.3457 18.5659 20.5277 18.6274C20.7111 18.689 20.8412 18.7989 20.9182 18.9571C20.9952 19.1153 21.0337 19.3392 21.0337 19.629V21H20.6285V19.629C20.6285 19.4638 20.6145 19.3308 20.5865 19.23C20.5585 19.1292 20.5102 19.053 20.4416 19.0012C20.3744 18.9494 20.2813 18.9151 20.1624 18.8983C20.0434 18.8801 19.8922 18.871 19.7088 18.871C19.4289 18.871 19.2091 18.8941 19.0496 18.9403C18.89 18.9865 18.7773 19.0593 18.7115 19.1586C18.6457 19.2566 18.6128 19.3847 18.6128 19.5429V21H18.2097ZM23.0493 21.9217C22.8352 21.9217 22.6399 21.9161 22.4635 21.9049C22.2886 21.8951 22.1381 21.8699 22.0121 21.8293C21.8861 21.7902 21.7889 21.7272 21.7203 21.6404C21.6517 21.555 21.6174 21.4374 21.6174 21.2876H22.0205C22.0205 21.3856 22.0583 21.4556 22.1339 21.4976C22.2109 21.5396 22.3257 21.5648 22.4782 21.5732C22.6308 21.5816 22.8212 21.5858 23.0493 21.5858C23.2187 21.5858 23.3636 21.5802 23.4839 21.569C23.6043 21.5592 23.7023 21.5291 23.7779 21.4787C23.8549 21.4283 23.9109 21.3436 23.9458 21.2247C23.9822 21.1071 24.0004 20.9412 24.0004 20.7271V20.6704C23.9025 20.7963 23.7674 20.8796 23.5952 20.9202C23.4244 20.9608 23.2124 20.9811 22.959 20.9811C22.6973 20.9811 22.474 20.9664 22.2893 20.937C22.1045 20.9062 21.954 20.8488 21.8378 20.7648C21.7231 20.6809 21.6391 20.5591 21.5859 20.3995C21.5327 20.2399 21.5061 20.0314 21.5061 19.7738C21.5061 19.4995 21.5327 19.2797 21.5859 19.1146C21.6391 18.9494 21.7231 18.8255 21.8378 18.7429C21.954 18.6589 22.1045 18.6036 22.2893 18.5771C22.474 18.5491 22.6973 18.5351 22.959 18.5351C23.2124 18.5351 23.4244 18.554 23.5952 18.5917C23.7674 18.6281 23.9025 18.71 24.0004 18.8374V18.5812H24.4036V20.7438C24.398 21.0098 24.3644 21.2212 24.3028 21.3779C24.2412 21.5361 24.153 21.6537 24.0382 21.7307C23.9249 21.809 23.7849 21.8601 23.6183 21.8839C23.4531 21.9091 23.2635 21.9217 23.0493 21.9217ZM24.0004 19.7738C24.0004 19.5737 23.9878 19.4141 23.9626 19.2951C23.9389 19.1747 23.8913 19.0845 23.8199 19.0243C23.7499 18.9627 23.6456 18.9221 23.507 18.9025C23.3699 18.8815 23.1872 18.871 22.959 18.871C22.7183 18.871 22.5272 18.8815 22.3858 18.9025C22.2459 18.9221 22.1416 18.9627 22.073 19.0243C22.0044 19.0845 21.9596 19.1747 21.9386 19.2951C21.919 19.4141 21.9092 19.5737 21.9092 19.7738C21.9092 19.9558 21.919 20.1042 21.9386 20.2189C21.9596 20.3337 22.0037 20.4219 22.0709 20.4835C22.1395 20.5451 22.2445 20.5878 22.3858 20.6116C22.5272 20.634 22.7183 20.6452 22.959 20.6452C23.1872 20.6452 23.3699 20.634 23.507 20.6116C23.6456 20.5878 23.7499 20.5451 23.8199 20.4835C23.8913 20.4219 23.9389 20.3337 23.9626 20.2189C23.9878 20.1042 24.0004 19.9558 24.0004 19.7738Z"/>
</mask>
<path d="M5.12915 21V18.1109H3.51665V17.775H7.14477V18.1109H5.53227V21H5.12915ZM7.65288 21V18.5812H8.05601V18.9151C8.1008 18.8437 8.14559 18.7842 8.19038 18.7366C8.23657 18.689 8.29606 18.6512 8.36885 18.6232C8.44303 18.5952 8.54311 18.5757 8.66909 18.5645C8.79507 18.5519 8.96094 18.5456 9.1667 18.5456V18.8836C8.88955 18.8836 8.67469 18.8934 8.52212 18.913C8.37095 18.9326 8.26247 18.9662 8.19668 19.0138C8.13089 19.06 8.091 19.1243 8.077 19.2069C8.063 19.2895 8.05601 19.3945 8.05601 19.5219V21H7.65288ZM10.9577 21.0462C10.6679 21.0462 10.4286 21.0308 10.2396 21C10.052 20.9706 9.91206 20.9048 9.81968 20.8026C9.72869 20.7005 9.6832 20.5416 9.6832 20.326C9.6832 20.1063 9.7259 19.9453 9.81128 19.8431C9.89806 19.7395 10.0345 19.6723 10.2207 19.6416C10.4083 19.6108 10.6539 19.5954 10.9577 19.5954C11.204 19.5954 11.4105 19.601 11.5771 19.6122C11.7436 19.6234 11.8927 19.643 12.0243 19.6709C12.0215 19.4848 12.0089 19.3385 11.9865 19.2321C11.9641 19.1243 11.9221 19.0446 11.8605 18.9928C11.7989 18.941 11.7086 18.9081 11.5896 18.8941C11.4721 18.8787 11.3153 18.871 11.1193 18.871C10.8954 18.871 10.7197 18.8759 10.5923 18.8857C10.4664 18.8955 10.3747 18.913 10.3173 18.9382C10.2599 18.9634 10.2235 18.9998 10.2081 19.0474C10.1941 19.095 10.1871 19.1565 10.1871 19.2321H9.78398C9.78398 19.081 9.80428 18.9592 9.84487 18.8668C9.88687 18.7744 9.95755 18.7044 10.0569 18.6568C10.1563 18.6092 10.2921 18.5771 10.4643 18.5603C10.6378 18.5435 10.8562 18.5351 11.1193 18.5351C11.4021 18.5351 11.6295 18.5533 11.8017 18.5896C11.9753 18.626 12.1069 18.6918 12.1964 18.787C12.2874 18.8808 12.3483 19.0124 12.3791 19.1817C12.4113 19.3511 12.4274 19.5695 12.4274 19.8368V21H12.0243V20.8341C11.9767 20.8845 11.9109 20.9251 11.8269 20.9559C11.7429 20.9867 11.6309 21.0091 11.491 21.0231C11.3524 21.0385 11.1746 21.0462 10.9577 21.0462ZM10.9577 20.7187C11.197 20.7187 11.3881 20.7159 11.5309 20.7103C11.6736 20.7047 11.78 20.6893 11.85 20.6641C11.9214 20.6389 11.9683 20.5983 11.9907 20.5423C12.0131 20.4863 12.0243 20.4079 12.0243 20.3071V19.9355L10.9577 19.9229C10.7687 19.9201 10.6161 19.9229 10.5 19.9313C10.3852 19.9383 10.2977 19.9551 10.2375 19.9817C10.1773 20.0069 10.1367 20.0475 10.1157 20.1035C10.0961 20.1581 10.0863 20.2322 10.0863 20.326C10.0863 20.417 10.0961 20.4891 10.1157 20.5423C10.1367 20.5955 10.1773 20.6347 10.2375 20.6599C10.2977 20.6851 10.3852 20.7012 10.5 20.7082C10.6161 20.7152 10.7687 20.7187 10.9577 20.7187ZM12.9565 21V18.7156H13.3596V21H12.9565ZM12.9565 18.1781V17.775H13.3596V18.1781H12.9565ZM13.9055 21V18.5812H14.3086V18.9025C14.3688 18.8213 14.443 18.7534 14.5312 18.6988C14.6208 18.6442 14.7398 18.6036 14.8881 18.5771C15.0379 18.5491 15.2339 18.5351 15.476 18.5351C15.7924 18.5351 16.0415 18.5659 16.2235 18.6274C16.4069 18.689 16.537 18.7989 16.614 18.9571C16.691 19.1153 16.7295 19.3392 16.7295 19.629V21H16.3243V19.629C16.3243 19.4638 16.3103 19.3308 16.2823 19.23C16.2543 19.1292 16.206 19.053 16.1374 19.0012C16.0702 18.9494 15.9771 18.9151 15.8582 18.8983C15.7392 18.8801 15.588 18.871 15.4046 18.871C15.1247 18.871 14.9049 18.8941 14.7454 18.9403C14.5858 18.9865 14.4731 19.0593 14.4073 19.1586C14.3415 19.2566 14.3086 19.3847 14.3086 19.5429V21H13.9055ZM17.2607 21V18.7156H17.6638V21H17.2607ZM17.2607 18.1781V17.775H17.6638V18.1781H17.2607ZM18.2097 21V18.5812H18.6128V18.9025C18.673 18.8213 18.7472 18.7534 18.8354 18.6988C18.925 18.6442 19.044 18.6036 19.1923 18.5771C19.3421 18.5491 19.5381 18.5351 19.7802 18.5351C20.0966 18.5351 20.3457 18.5659 20.5277 18.6274C20.7111 18.689 20.8412 18.7989 20.9182 18.9571C20.9952 19.1153 21.0337 19.3392 21.0337 19.629V21H20.6285V19.629C20.6285 19.4638 20.6145 19.3308 20.5865 19.23C20.5585 19.1292 20.5102 19.053 20.4416 19.0012C20.3744 18.9494 20.2813 18.9151 20.1624 18.8983C20.0434 18.8801 19.8922 18.871 19.7088 18.871C19.4289 18.871 19.2091 18.8941 19.0496 18.9403C18.89 18.9865 18.7773 19.0593 18.7115 19.1586C18.6457 19.2566 18.6128 19.3847 18.6128 19.5429V21H18.2097ZM23.0493 21.9217C22.8352 21.9217 22.6399 21.9161 22.4635 21.9049C22.2886 21.8951 22.1381 21.8699 22.0121 21.8293C21.8861 21.7902 21.7889 21.7272 21.7203 21.6404C21.6517 21.555 21.6174 21.4374 21.6174 21.2876H22.0205C22.0205 21.3856 22.0583 21.4556 22.1339 21.4976C22.2109 21.5396 22.3257 21.5648 22.4782 21.5732C22.6308 21.5816 22.8212 21.5858 23.0493 21.5858C23.2187 21.5858 23.3636 21.5802 23.4839 21.569C23.6043 21.5592 23.7023 21.5291 23.7779 21.4787C23.8549 21.4283 23.9109 21.3436 23.9458 21.2247C23.9822 21.1071 24.0004 20.9412 24.0004 20.7271V20.6704C23.9025 20.7963 23.7674 20.8796 23.5952 20.9202C23.4244 20.9608 23.2124 20.9811 22.959 20.9811C22.6973 20.9811 22.474 20.9664 22.2893 20.937C22.1045 20.9062 21.954 20.8488 21.8378 20.7648C21.7231 20.6809 21.6391 20.5591 21.5859 20.3995C21.5327 20.2399 21.5061 20.0314 21.5061 19.7738C21.5061 19.4995 21.5327 19.2797 21.5859 19.1146C21.6391 18.9494 21.7231 18.8255 21.8378 18.7429C21.954 18.6589 22.1045 18.6036 22.2893 18.5771C22.474 18.5491 22.6973 18.5351 22.959 18.5351C23.2124 18.5351 23.4244 18.554 23.5952 18.5917C23.7674 18.6281 23.9025 18.71 24.0004 18.8374V18.5812H24.4036V20.7438C24.398 21.0098 24.3644 21.2212 24.3028 21.3779C24.2412 21.5361 24.153 21.6537 24.0382 21.7307C23.9249 21.809 23.7849 21.8601 23.6183 21.8839C23.4531 21.9091 23.2635 21.9217 23.0493 21.9217ZM24.0004 19.7738C24.0004 19.5737 23.9878 19.4141 23.9626 19.2951C23.9389 19.1747 23.8913 19.0845 23.8199 19.0243C23.7499 18.9627 23.6456 18.9221 23.507 18.9025C23.3699 18.8815 23.1872 18.871 22.959 18.871C22.7183 18.871 22.5272 18.8815 22.3858 18.9025C22.2459 18.9221 22.1416 18.9627 22.073 19.0243C22.0044 19.0845 21.9596 19.1747 21.9386 19.2951C21.919 19.4141 21.9092 19.5737 21.9092 19.7738C21.9092 19.9558 21.919 20.1042 21.9386 20.2189C21.9596 20.3337 22.0037 20.4219 22.0709 20.4835C22.1395 20.5451 22.2445 20.5878 22.3858 20.6116C22.5272 20.634 22.7183 20.6452 22.959 20.6452C23.1872 20.6452 23.3699 20.634 23.507 20.6116C23.6456 20.5878 23.7499 20.5451 23.8199 20.4835C23.8913 20.4219 23.9389 20.3337 23.9626 20.2189C23.9878 20.1042 24.0004 19.9558 24.0004 19.7738Z" fill="black"/>
<path d="M5.12915 21H5.02915V21.1H5.12915V21ZM5.12915 18.1109H5.22915V18.0109H5.12915V18.1109ZM3.51665 18.1109H3.41665V18.2109H3.51665V18.1109ZM3.51665 17.775V17.675H3.41665V17.775H3.51665ZM7.14477 17.775H7.24477V17.675H7.14477V17.775ZM7.14477 18.1109V18.2109H7.24477V18.1109H7.14477ZM5.53227 18.1109V18.0109H5.43227V18.1109H5.53227ZM5.53227 21V21.1H5.63227V21H5.53227ZM5.12915 21H5.22915V18.1109H5.12915H5.02915V21H5.12915ZM5.12915 18.1109V18.0109H3.51665V18.1109V18.2109H5.12915V18.1109ZM3.51665 18.1109H3.61665V17.775H3.51665H3.41665V18.1109H3.51665ZM3.51665 17.775V17.875H7.14477V17.775V17.675H3.51665V17.775ZM7.14477 17.775H7.04478V18.1109H7.14477H7.24477V17.775H7.14477ZM7.14477 18.1109V18.0109H5.53227V18.1109V18.2109H7.14477V18.1109ZM5.53227 18.1109H5.43227V21H5.53227H5.63227V18.1109H5.53227ZM5.53227 21V20.9H5.12915V21V21.1H5.53227V21ZM7.65288 21H7.55288V21.1H7.65288V21ZM7.65288 18.5812V18.4812H7.55288V18.5812H7.65288ZM8.05601 18.5812H8.15601V18.4812H8.05601V18.5812ZM8.05601 18.9151H7.95601V19.2626L8.14071 18.9682L8.05601 18.9151ZM8.19038 18.7366L8.11861 18.667L8.11756 18.6681L8.19038 18.7366ZM8.36885 18.6232L8.33354 18.5297L8.33295 18.5299L8.36885 18.6232ZM8.66909 18.5645L8.67795 18.6641L8.67904 18.664L8.66909 18.5645ZM9.1667 18.5456H9.2667V18.4456H9.1667V18.5456ZM9.1667 18.8836V18.9836H9.2667V18.8836H9.1667ZM8.52212 18.913L8.50938 18.8138L8.50926 18.8138L8.52212 18.913ZM8.19668 19.0138L8.25415 19.0956L8.25529 19.0948L8.19668 19.0138ZM8.05601 21V21.1H8.15601V21H8.05601ZM7.65288 21H7.75288V18.5812H7.65288H7.55288V21H7.65288ZM7.65288 18.5812V18.6812H8.05601V18.5812V18.4812H7.65288V18.5812ZM8.05601 18.5812H7.95601V18.9151H8.05601H8.15601V18.5812H8.05601ZM8.05601 18.9151L8.14071 18.9682C8.18299 18.9009 8.22392 18.8469 8.2632 18.8052L8.19038 18.7366L8.11756 18.6681C8.06725 18.7215 8.01861 18.7865 7.9713 18.8619L8.05601 18.9151ZM8.19038 18.7366L8.26214 18.8063C8.29661 18.7708 8.34313 18.7403 8.40475 18.7166L8.36885 18.6232L8.33295 18.5299C8.24899 18.5622 8.17653 18.6073 8.11862 18.667L8.19038 18.7366ZM8.36885 18.6232L8.40415 18.7168C8.46634 18.6933 8.55633 18.6749 8.67795 18.6641L8.66909 18.5645L8.66024 18.4648C8.5299 18.4764 8.41973 18.4972 8.33354 18.5297L8.36885 18.6232ZM8.66909 18.5645L8.67904 18.664C8.80032 18.6518 8.96249 18.6456 9.1667 18.6456V18.5456V18.4456C8.95939 18.4456 8.78981 18.4519 8.65914 18.4649L8.66909 18.5645ZM9.1667 18.5456H9.0667V18.8836H9.1667H9.2667V18.5456H9.1667ZM9.1667 18.8836V18.7836C8.88809 18.7836 8.66825 18.7934 8.50938 18.8138L8.52212 18.913L8.53486 19.0122C8.68113 18.9934 8.89102 18.9836 9.1667 18.9836V18.8836ZM8.52212 18.913L8.50926 18.8138C8.3537 18.834 8.22465 18.8701 8.13807 18.9327L8.19668 19.0138L8.25529 19.0948C8.30028 19.0622 8.38819 19.0312 8.53497 19.0122L8.52212 18.913ZM8.19668 19.0138L8.13922 18.9319C8.05057 18.9942 7.99666 19.0825 7.97841 19.1902L8.077 19.2069L8.1756 19.2236C8.18534 19.1662 8.21122 19.1257 8.25414 19.0956L8.19668 19.0138ZM8.077 19.2069L7.97841 19.1902C7.96313 19.2804 7.95601 19.3915 7.95601 19.5219H8.05601H8.15601C8.15601 19.3975 8.16288 19.2987 8.1756 19.2236L8.077 19.2069ZM8.05601 19.5219H7.95601V21H8.05601H8.15601V19.5219H8.05601ZM8.05601 21V20.9H7.65288V21V21.1H8.05601V21ZM10.2396 21L10.2557 20.9013L10.2551 20.9012L10.2396 21ZM9.81968 20.8026L9.74499 20.8691L9.7455 20.8697L9.81968 20.8026ZM9.81128 19.8431L9.73463 19.7789L9.73454 19.779L9.81128 19.8431ZM10.2207 19.6416L10.2045 19.5429L10.2044 19.5429L10.2207 19.6416ZM12.0243 19.6709L12.0035 19.7688L12.1261 19.7949L12.1243 19.6694L12.0243 19.6709ZM11.9865 19.2321L11.8886 19.2525L11.8886 19.2527L11.9865 19.2321ZM11.5896 18.8941L11.5767 18.9933L11.578 18.9934L11.5896 18.8941ZM10.5923 18.8857L10.5847 18.786L10.5846 18.786L10.5923 18.8857ZM10.2081 19.0474L10.1129 19.0166L10.1122 19.0191L10.2081 19.0474ZM10.1871 19.2321V19.3321H10.2871V19.2321H10.1871ZM9.78398 19.2321H9.68398V19.3321H9.78398V19.2321ZM9.84487 18.8668L9.75383 18.8254L9.75332 18.8266L9.84487 18.8668ZM10.4643 18.5603L10.4546 18.4607L10.4545 18.4607L10.4643 18.5603ZM11.8017 18.5896L11.781 18.6875L11.7812 18.6875L11.8017 18.5896ZM12.1964 18.787L12.1236 18.8556L12.1247 18.8566L12.1964 18.787ZM12.3791 19.1817L12.2807 19.1996L12.2809 19.2004L12.3791 19.1817ZM12.4274 21V21.1H12.5274V21H12.4274ZM12.0243 21H11.9243V21.1H12.0243V21ZM12.0243 20.8341H12.1243V20.5826L11.9516 20.7655L12.0243 20.8341ZM11.491 21.0231L11.481 20.9236L11.4799 20.9237L11.491 21.0231ZM11.85 20.6641L11.8167 20.5698L11.8161 20.57L11.85 20.6641ZM12.0243 19.9355H12.1243V19.8367L12.0254 19.8355L12.0243 19.9355ZM10.9577 19.9229L10.9562 20.0229L10.9565 20.0229L10.9577 19.9229ZM10.5 19.9313L10.506 20.0311L10.5072 20.031L10.5 19.9313ZM10.2375 19.9817L10.2761 20.074L10.2779 20.0732L10.2375 19.9817ZM10.1157 20.1035L10.0221 20.0684L10.0216 20.0697L10.1157 20.1035ZM10.1157 20.5423L10.0219 20.5769L10.0227 20.579L10.1157 20.5423ZM10.5 20.7082L10.4939 20.808L10.4939 20.808L10.5 20.7082ZM10.9577 21.0462V20.9462C10.6709 20.9462 10.4374 20.9309 10.2557 20.9013L10.2396 21L10.2235 21.0987C10.4198 21.1307 10.665 21.1462 10.9577 21.1462V21.0462ZM10.2396 21L10.2551 20.9012C10.0817 20.874 9.96598 20.8153 9.89386 20.7356L9.81968 20.8026L9.7455 20.8697C9.85814 20.9943 10.0224 21.0672 10.2241 21.0988L10.2396 21ZM9.81968 20.8026L9.89436 20.7361C9.82683 20.6603 9.7832 20.5305 9.7832 20.326H9.6832H9.5832C9.5832 20.5527 9.63056 20.7406 9.74499 20.8691L9.81968 20.8026ZM9.6832 20.326H9.7832C9.7832 20.1156 9.82474 19.983 9.88801 19.9072L9.81128 19.8431L9.73454 19.779C9.62705 19.9076 9.5832 20.0969 9.5832 20.326H9.6832ZM9.81128 19.8431L9.88793 19.9073C9.95424 19.8282 10.0651 19.7686 10.237 19.7402L10.2207 19.6416L10.2044 19.5429C10.0039 19.5761 9.84188 19.6509 9.73463 19.7789L9.81128 19.8431ZM10.2207 19.6416L10.2369 19.7402C10.4169 19.7107 10.6566 19.6954 10.9577 19.6954V19.5954V19.4954C10.6513 19.4954 10.3996 19.5108 10.2045 19.5429L10.2207 19.6416ZM10.9577 19.5954V19.6954C11.2027 19.6954 11.4068 19.7009 11.5703 19.7119L11.5771 19.6122L11.5838 19.5124C11.4142 19.501 11.2053 19.4954 10.9577 19.4954V19.5954ZM11.5771 19.6122L11.5703 19.7119C11.7332 19.7229 11.8775 19.742 12.0035 19.7688L12.0243 19.6709L12.0451 19.5731C11.9079 19.544 11.754 19.5238 11.5838 19.5124L11.5771 19.6122ZM12.0243 19.6709L12.1243 19.6694C12.1214 19.4807 12.1087 19.3271 12.0843 19.2115L11.9865 19.2321L11.8886 19.2527C11.9091 19.3499 11.9215 19.4889 11.9243 19.6725L12.0243 19.6709ZM11.9865 19.2321L12.0844 19.2118C12.0591 19.09 12.009 18.987 11.9249 18.9162L11.8605 18.9928L11.7961 19.0693C11.8352 19.1022 11.8691 19.1587 11.8886 19.2525L11.9865 19.2321ZM11.8605 18.9928L11.9249 18.9162C11.8427 18.8471 11.7308 18.81 11.6013 18.7948L11.5896 18.8941L11.578 18.9934C11.6864 19.0062 11.7551 19.0348 11.7961 19.0693L11.8605 18.9928ZM11.5896 18.8941L11.6026 18.7949C11.4789 18.7787 11.3172 18.771 11.1193 18.771V18.871V18.971C11.3134 18.971 11.4653 18.9787 11.5767 18.9932L11.5896 18.8941ZM11.1193 18.871V18.771C10.8944 18.771 10.7158 18.7759 10.5847 18.786L10.5923 18.8857L10.6 18.9854C10.7236 18.9759 10.8963 18.971 11.1193 18.971V18.871ZM10.5923 18.8857L10.5846 18.786C10.4564 18.796 10.3506 18.8143 10.2771 18.8466L10.3173 18.9382L10.3575 19.0297C10.3987 19.0116 10.4763 18.995 10.6001 18.9854L10.5923 18.8857ZM10.3173 18.9382L10.2771 18.8466C10.2007 18.8802 10.1393 18.9352 10.113 19.0166L10.2081 19.0474L10.3033 19.0781C10.3077 19.0643 10.3191 19.0466 10.3575 19.0297L10.3173 18.9382ZM10.2081 19.0474L10.1122 19.0191C10.0945 19.0794 10.0871 19.1514 10.0871 19.2321H10.1871H10.2871C10.2871 19.1617 10.2938 19.1105 10.304 19.0756L10.2081 19.0474ZM10.1871 19.2321V19.1321H9.78398V19.2321V19.3321H10.1871V19.2321ZM9.78398 19.2321H9.88398C9.88398 19.0885 9.90347 18.982 9.93643 18.907L9.84487 18.8668L9.75332 18.8266C9.70509 18.9363 9.68398 19.0734 9.68398 19.2321H9.78398ZM9.84487 18.8668L9.93591 18.9082C9.96732 18.8391 10.02 18.7854 10.1001 18.747L10.0569 18.6568L10.0137 18.5666C9.89513 18.6234 9.80641 18.7098 9.75384 18.8254L9.84487 18.8668ZM10.0569 18.6568L10.1001 18.747C10.1847 18.7065 10.3076 18.676 10.474 18.6598L10.4643 18.5603L10.4545 18.4607C10.2766 18.4781 10.1279 18.512 10.0137 18.5666L10.0569 18.6568ZM10.4643 18.5603L10.4739 18.6598C10.6431 18.6434 10.858 18.6351 11.1193 18.6351V18.5351V18.4351C10.8544 18.4351 10.6326 18.4435 10.4546 18.4607L10.4643 18.5603ZM11.1193 18.5351V18.6351C11.3988 18.6351 11.6185 18.6531 11.781 18.6875L11.8017 18.5896L11.8224 18.4918C11.6406 18.4534 11.4054 18.4351 11.1193 18.4351V18.5351ZM11.8017 18.5896L11.7812 18.6875C11.9417 18.7212 12.0523 18.7797 12.1236 18.8555L12.1964 18.787L12.2693 18.7185C12.1614 18.6039 12.0088 18.5309 11.8222 18.4918L11.8017 18.5896ZM12.1964 18.787L12.1247 18.8566C12.1981 18.9323 12.2524 19.0437 12.2807 19.1996L12.3791 19.1817L12.4775 19.1638C12.4443 18.9811 12.3768 18.8293 12.2682 18.7174L12.1964 18.787ZM12.3791 19.1817L12.2809 19.2004C12.3114 19.3612 12.3274 19.5727 12.3274 19.8368H12.4274H12.5274C12.5274 19.5662 12.5112 19.341 12.4773 19.1631L12.3791 19.1817ZM12.4274 19.8368H12.3274V21H12.4274H12.5274V19.8368H12.4274ZM12.4274 21V20.9H12.0243V21V21.1H12.4274V21ZM12.0243 21H12.1243V20.8341H12.0243H11.9243V21H12.0243ZM12.0243 20.8341L11.9516 20.7655C11.9172 20.8018 11.866 20.8351 11.7925 20.862L11.8269 20.9559L11.8613 21.0498C11.9558 21.0152 12.0361 20.9672 12.097 20.9028L12.0243 20.8341ZM11.8269 20.9559L11.7925 20.862C11.7195 20.8888 11.6168 20.91 11.481 20.9236L11.491 21.0231L11.5009 21.1226C11.6451 21.1082 11.7663 21.0846 11.8613 21.0498L11.8269 20.9559ZM11.491 21.0231L11.4799 20.9237C11.3464 20.9385 11.1727 20.9462 10.9577 20.9462V21.0462V21.1462C11.1765 21.1462 11.3583 21.1384 11.502 21.1225L11.491 21.0231ZM10.9577 20.7187V20.8187C11.1976 20.8187 11.3901 20.8158 11.5348 20.8102L11.5309 20.7103L11.5269 20.6103C11.386 20.6159 11.1965 20.6187 10.9577 20.6187V20.7187ZM11.5309 20.7103L11.5348 20.8102C11.6802 20.8045 11.7991 20.7887 11.8839 20.7582L11.85 20.6641L11.8161 20.57C11.761 20.5898 11.6671 20.6048 11.5269 20.6103L11.5309 20.7103ZM11.85 20.6641L11.8833 20.7584C11.9744 20.7262 12.0478 20.6687 12.0835 20.5794L11.9907 20.5423L11.8978 20.5051C11.8888 20.5278 11.8684 20.5515 11.8167 20.5698L11.85 20.6641ZM11.9907 20.5423L12.0835 20.5794C12.1128 20.5063 12.1243 20.4132 12.1243 20.3071H12.0243H11.9243C11.9243 20.4026 11.9134 20.4663 11.8978 20.5051L11.9907 20.5423ZM12.0243 20.3071H12.1243V19.9355H12.0243H11.9243V20.3071H12.0243ZM12.0243 19.9355L12.0254 19.8355L10.9588 19.8229L10.9577 19.9229L10.9565 20.0229L12.0231 20.0355L12.0243 19.9355ZM10.9577 19.9229L10.9591 19.8229C10.7688 19.8201 10.613 19.8229 10.4927 19.8316L10.5 19.9313L10.5072 20.031C10.6192 20.0229 10.7686 20.0201 10.9562 20.0229L10.9577 19.9229ZM10.5 19.9313L10.4939 19.8315C10.3747 19.8387 10.2734 19.8565 10.1971 19.8902L10.2375 19.9817L10.2779 20.0732C10.322 20.0537 10.3956 20.0378 10.506 20.0311L10.5 19.9313ZM10.2375 19.9817L10.1989 19.8894C10.1158 19.9242 10.0537 19.984 10.0221 20.0684L10.1157 20.1035L10.2094 20.1386C10.2197 20.1109 10.2388 20.0896 10.2761 20.0739L10.2375 19.9817ZM10.1157 20.1035L10.0216 20.0697C9.99646 20.1397 9.98633 20.2269 9.98633 20.326H10.0863H10.1863C10.1863 20.2376 10.1958 20.1764 10.2098 20.1373L10.1157 20.1035ZM10.0863 20.326H9.98633C9.98633 20.4225 9.9965 20.5079 10.0219 20.5769L10.1157 20.5423L10.2096 20.5077C10.1958 20.4702 10.1863 20.4115 10.1863 20.326H10.0863ZM10.1157 20.5423L10.0227 20.579C10.055 20.6609 10.1176 20.7181 10.1989 20.7521L10.2375 20.6599L10.2761 20.5676C10.237 20.5512 10.2184 20.5301 10.2087 20.5056L10.1157 20.5423ZM10.2375 20.6599L10.1989 20.7521C10.2744 20.7837 10.3751 20.8007 10.4939 20.808L10.5 20.7082L10.506 20.6083C10.3953 20.6016 10.3209 20.5864 10.2761 20.5676L10.2375 20.6599ZM10.5 20.7082L10.4939 20.808C10.613 20.8151 10.7678 20.8187 10.9577 20.8187V20.7187V20.6187C10.7696 20.6187 10.6193 20.6152 10.506 20.6083L10.5 20.7082ZM12.9565 21H12.8565V21.1H12.9565V21ZM12.9565 18.7156V18.6156H12.8565V18.7156H12.9565ZM13.3596 18.7156H13.4596V18.6156H13.3596V18.7156ZM13.3596 21V21.1H13.4596V21H13.3596ZM12.9565 18.1781H12.8565V18.2781H12.9565V18.1781ZM12.9565 17.775V17.675H12.8565V17.775H12.9565ZM13.3596 17.775H13.4596V17.675H13.3596V17.775ZM13.3596 18.1781V18.2781H13.4596V18.1781H13.3596ZM12.9565 21H13.0565V18.7156H12.9565H12.8565V21H12.9565ZM12.9565 18.7156V18.8156H13.3596V18.7156V18.6156H12.9565V18.7156ZM13.3596 18.7156H13.2596V21H13.3596H13.4596V18.7156H13.3596ZM13.3596 21V20.9H12.9565V21V21.1H13.3596V21ZM12.9565 18.1781H13.0565V17.775H12.9565H12.8565V18.1781H12.9565ZM12.9565 17.775V17.875H13.3596V17.775V17.675H12.9565V17.775ZM13.3596 17.775H13.2596V18.1781H13.3596H13.4596V17.775H13.3596ZM13.3596 18.1781V18.0781H12.9565V18.1781V18.2781H13.3596V18.1781ZM13.9055 21H13.8055V21.1H13.9055V21ZM13.9055 18.5812V18.4812H13.8055V18.5812H13.9055ZM14.3086 18.5812H14.4086V18.4812H14.3086V18.5812ZM14.3086 18.9025H14.2086V19.2053L14.389 18.962L14.3086 18.9025ZM14.5312 18.6988L14.4792 18.6134L14.4786 18.6138L14.5312 18.6988ZM14.8881 18.5771L14.9058 18.6755L14.9065 18.6753L14.8881 18.5771ZM16.2235 18.6274L16.1914 18.7222L16.1916 18.7222L16.2235 18.6274ZM16.7295 21V21.1H16.8295V21H16.7295ZM16.3243 21H16.2243V21.1H16.3243V21ZM16.1374 19.0012L16.0763 19.0804L16.0771 19.081L16.1374 19.0012ZM15.8582 18.8983L15.843 18.9971L15.8442 18.9973L15.8582 18.8983ZM14.4073 19.1586L14.4903 19.2144L14.4907 19.2138L14.4073 19.1586ZM14.3086 21V21.1H14.4086V21H14.3086ZM13.9055 21H14.0055V18.5812H13.9055H13.8055V21H13.9055ZM13.9055 18.5812V18.6812H14.3086V18.5812V18.4812H13.9055V18.5812ZM14.3086 18.5812H14.2086V18.9025H14.3086H14.4086V18.5812H14.3086ZM14.3086 18.9025L14.389 18.962C14.4414 18.8913 14.5061 18.832 14.5838 18.7839L14.5312 18.6988L14.4786 18.6138C14.3799 18.6749 14.2962 18.7513 14.2283 18.8429L14.3086 18.9025ZM14.5312 18.6988L14.5832 18.7842C14.6587 18.7382 14.7647 18.7008 14.9058 18.6755L14.8881 18.5771L14.8705 18.4786C14.7148 18.5065 14.5828 18.5503 14.4792 18.6134L14.5312 18.6988ZM14.8881 18.5771L14.9065 18.6753C15.0478 18.6489 15.2369 18.6351 15.476 18.6351V18.5351V18.4351C15.2309 18.4351 15.0281 18.4492 14.8698 18.4788L14.8881 18.5771ZM15.476 18.5351V18.6351C15.7876 18.6351 16.0243 18.6656 16.1914 18.7222L16.2235 18.6274L16.2555 18.5327C16.0587 18.4661 15.7972 18.4351 15.476 18.4351V18.5351ZM16.2235 18.6274L16.1916 18.7222C16.3524 18.7762 16.4601 18.8693 16.5241 19.0008L16.614 18.9571L16.7039 18.9133C16.614 18.7285 16.4613 18.6018 16.2553 18.5326L16.2235 18.6274ZM16.614 18.9571L16.5241 19.0008C16.5915 19.1393 16.6295 19.3457 16.6295 19.629H16.7295H16.8295C16.8295 19.3327 16.7905 19.0912 16.7039 18.9133L16.614 18.9571ZM16.7295 19.629H16.6295V21H16.7295H16.8295V19.629H16.7295ZM16.7295 21V20.9H16.3243V21V21.1H16.7295V21ZM16.3243 21H16.4243V19.629H16.3243H16.2243V21H16.3243ZM16.3243 19.629H16.4243C16.4243 19.4593 16.41 19.3163 16.3786 19.2033L16.2823 19.23L16.1859 19.2568C16.2105 19.3453 16.2243 19.4683 16.2243 19.629H16.3243ZM16.2823 19.23L16.3786 19.2033C16.3461 19.086 16.2873 18.9891 16.1977 18.9214L16.1374 19.0012L16.0771 19.081C16.1247 19.1169 16.1625 19.1725 16.1859 19.2568L16.2823 19.23ZM16.1374 19.0012L16.1985 18.922C16.113 18.8561 16.0015 18.8175 15.8721 18.7993L15.8582 18.8983L15.8442 18.9973C15.9528 19.0126 16.0274 19.0426 16.0764 19.0804L16.1374 19.0012ZM15.8582 18.8983L15.8733 18.7994C15.7474 18.7802 15.5907 18.771 15.4046 18.771V18.871V18.971C15.5853 18.971 15.7309 18.98 15.843 18.9971L15.8582 18.8983ZM15.4046 18.871V18.771C15.1208 18.771 14.8902 18.7942 14.7176 18.8442L14.7454 18.9403L14.7732 19.0363C14.9196 18.9939 15.1286 18.971 15.4046 18.971V18.871ZM14.7454 18.9403L14.7176 18.8442C14.5441 18.8944 14.4072 18.9777 14.3239 19.1034L14.4073 19.1586L14.4907 19.2138C14.5391 19.1408 14.6275 19.0785 14.7732 19.0363L14.7454 18.9403ZM14.4073 19.1586L14.3243 19.1029C14.2443 19.2221 14.2086 19.3715 14.2086 19.5429H14.3086H14.4086C14.4086 19.3979 14.4388 19.2911 14.4903 19.2144L14.4073 19.1586ZM14.3086 19.5429H14.2086V21H14.3086H14.4086V19.5429H14.3086ZM14.3086 21V20.9H13.9055V21V21.1H14.3086V21ZM17.2607 21H17.1607V21.1H17.2607V21ZM17.2607 18.7156V18.6156H17.1607V18.7156H17.2607ZM17.6638 18.7156H17.7638V18.6156H17.6638V18.7156ZM17.6638 21V21.1H17.7638V21H17.6638ZM17.2607 18.1781H17.1607V18.2781H17.2607V18.1781ZM17.2607 17.775V17.675H17.1607V17.775H17.2607ZM17.6638 17.775H17.7638V17.675H17.6638V17.775ZM17.6638 18.1781V18.2781H17.7638V18.1781H17.6638ZM17.2607 21H17.3607V18.7156H17.2607H17.1607V21H17.2607ZM17.2607 18.7156V18.8156H17.6638V18.7156V18.6156H17.2607V18.7156ZM17.6638 18.7156H17.5638V21H17.6638H17.7638V18.7156H17.6638ZM17.6638 21V20.9H17.2607V21V21.1H17.6638V21ZM17.2607 18.1781H17.3607V17.775H17.2607H17.1607V18.1781H17.2607ZM17.2607 17.775V17.875H17.6638V17.775V17.675H17.2607V17.775ZM17.6638 17.775H17.5638V18.1781H17.6638H17.7638V17.775H17.6638ZM17.6638 18.1781V18.0781H17.2607V18.1781V18.2781H17.6638V18.1781ZM18.2097 21H18.1097V21.1H18.2097V21ZM18.2097 18.5812V18.4812H18.1097V18.5812H18.2097ZM18.6128 18.5812H18.7128V18.4812H18.6128V18.5812ZM18.6128 18.9025H18.5128V19.2053L18.6932 18.962L18.6128 18.9025ZM18.8354 18.6988L18.7834 18.6134L18.7828 18.6138L18.8354 18.6988ZM19.1923 18.5771L19.21 18.6755L19.2107 18.6753L19.1923 18.5771ZM20.5277 18.6274L20.4956 18.7222L20.4958 18.7222L20.5277 18.6274ZM21.0337 21V21.1H21.1337V21H21.0337ZM20.6285 21H20.5285V21.1H20.6285V21ZM20.4416 19.0012L20.3805 19.0804L20.3813 19.081L20.4416 19.0012ZM20.1624 18.8983L20.1472 18.9971L20.1484 18.9973L20.1624 18.8983ZM18.7115 19.1586L18.7945 19.2144L18.7949 19.2138L18.7115 19.1586ZM18.6128 21V21.1H18.7128V21H18.6128ZM18.2097 21H18.3097V18.5812H18.2097H18.1097V21H18.2097ZM18.2097 18.5812V18.6812H18.6128V18.5812V18.4812H18.2097V18.5812ZM18.6128 18.5812H18.5128V18.9025H18.6128H18.7128V18.5812H18.6128ZM18.6128 18.9025L18.6932 18.962C18.7456 18.8913 18.8103 18.832 18.888 18.7839L18.8354 18.6988L18.7828 18.6138C18.6841 18.6749 18.6004 18.7513 18.5325 18.8429L18.6128 18.9025ZM18.8354 18.6988L18.8874 18.7842C18.9629 18.7382 19.0689 18.7008 19.21 18.6755L19.1923 18.5771L19.1747 18.4786C19.019 18.5065 18.887 18.5503 18.7834 18.6134L18.8354 18.6988ZM19.1923 18.5771L19.2107 18.6753C19.352 18.6489 19.5411 18.6351 19.7802 18.6351V18.5351V18.4351C19.535 18.4351 19.3323 18.4492 19.174 18.4788L19.1923 18.5771ZM19.7802 18.5351V18.6351C20.0918 18.6351 20.3285 18.6656 20.4956 18.7222L20.5277 18.6274L20.5597 18.5327C20.3629 18.4661 20.1014 18.4351 19.7802 18.4351V18.5351ZM20.5277 18.6274L20.4958 18.7222C20.6566 18.7762 20.7643 18.8693 20.8283 19.0008L20.9182 18.9571L21.0081 18.9133C20.9182 18.7285 20.7655 18.6018 20.5595 18.5326L20.5277 18.6274ZM20.9182 18.9571L20.8283 19.0008C20.8957 19.1393 20.9337 19.3457 20.9337 19.629H21.0337H21.1337C21.1337 19.3327 21.0947 19.0912 21.0081 18.9133L20.9182 18.9571ZM21.0337 19.629H20.9337V21H21.0337H21.1337V19.629H21.0337ZM21.0337 21V20.9H20.6285V21V21.1H21.0337V21ZM20.6285 21H20.7285V19.629H20.6285H20.5285V21H20.6285ZM20.6285 19.629H20.7285C20.7285 19.4593 20.7142 19.3163 20.6828 19.2033L20.5865 19.23L20.4901 19.2568C20.5147 19.3453 20.5285 19.4683 20.5285 19.629H20.6285ZM20.5865 19.23L20.6828 19.2033C20.6503 19.086 20.5915 18.9891 20.5019 18.9214L20.4416 19.0012L20.3813 19.081C20.4289 19.1169 20.4667 19.1725 20.4901 19.2568L20.5865 19.23ZM20.4416 19.0012L20.5027 18.922C20.4172 18.8561 20.3057 18.8175 20.1763 18.7993L20.1624 18.8983L20.1484 18.9973C20.257 19.0126 20.3316 19.0426 20.3806 19.0804L20.4416 19.0012ZM20.1624 18.8983L20.1775 18.7994C20.0516 18.7802 19.8949 18.771 19.7088 18.771V18.871V18.971C19.8895 18.971 20.0351 18.98 20.1472 18.9971L20.1624 18.8983ZM19.7088 18.871V18.771C19.425 18.771 19.1944 18.7942 19.0218 18.8442L19.0496 18.9403L19.0774 19.0363C19.2238 18.9939 19.4328 18.971 19.7088 18.971V18.871ZM19.0496 18.9403L19.0218 18.8442C18.8483 18.8944 18.7114 18.9777 18.6281 19.1034L18.7115 19.1586L18.7949 19.2138C18.8433 19.1408 18.9317 19.0785 19.0774 19.0363L19.0496 18.9403ZM18.7115 19.1586L18.6285 19.1029C18.5485 19.2221 18.5128 19.3715 18.5128 19.5429H18.6128H18.7128C18.7128 19.3979 18.743 19.2911 18.7945 19.2144L18.7115 19.1586ZM18.6128 19.5429H18.5128V21H18.6128H18.7128V19.5429H18.6128ZM18.6128 21V20.9H18.2097V21V21.1H18.6128V21ZM22.4635 21.9049L22.4699 21.8051L22.4691 21.8051L22.4635 21.9049ZM22.0121 21.8293L22.0428 21.7342L22.0418 21.7339L22.0121 21.8293ZM21.7203 21.6404L21.7987 21.5784L21.7982 21.5778L21.7203 21.6404ZM21.6174 21.2876V21.1876H21.5174V21.2876H21.6174ZM22.0205 21.2876H22.1205V21.1876H22.0205V21.2876ZM22.1339 21.4976L22.0853 21.585L22.086 21.5854L22.1339 21.4976ZM23.4839 21.569L23.4758 21.4693L23.4747 21.4694L23.4839 21.569ZM23.7779 21.4787L23.7231 21.395L23.7224 21.3955L23.7779 21.4787ZM23.9459 21.2247L23.8503 21.1951L23.8499 21.1964L23.9459 21.2247ZM24.0004 20.6704H24.1004V20.3789L23.9215 20.609L24.0004 20.6704ZM23.5952 20.9202L23.5723 20.8229L23.5721 20.8229L23.5952 20.9202ZM22.2893 20.937L22.2728 21.0357L22.2735 21.0358L22.2893 20.937ZM21.8378 20.7648L21.7788 20.8455L21.7793 20.8459L21.8378 20.7648ZM21.8378 18.7429L21.8962 18.8241L21.8964 18.824L21.8378 18.7429ZM22.2893 18.5771L22.3035 18.676L22.3042 18.6759L22.2893 18.5771ZM23.5952 18.5917L23.5736 18.6894L23.5745 18.6896L23.5952 18.5917ZM24.0004 18.8374L23.9212 18.8984L24.1004 19.1314V18.8374H24.0004ZM24.0004 18.5812V18.4812H23.9004V18.5812H24.0004ZM24.4036 18.5812H24.5036V18.4812H24.4036V18.5812ZM24.4036 20.7438L24.5036 20.746V20.7438H24.4036ZM24.3028 21.3779L24.2097 21.3414L24.2096 21.3416L24.3028 21.3779ZM24.0382 21.7307L23.9825 21.6476L23.9814 21.6484L24.0382 21.7307ZM23.6183 21.8839L23.6042 21.7849L23.6032 21.7851L23.6183 21.8839ZM23.9626 19.2951L23.8645 19.3145L23.8648 19.3158L23.9626 19.2951ZM23.8199 19.0243L23.7538 19.0994L23.7554 19.1007L23.8199 19.0243ZM23.507 18.9025L23.4919 19.0013L23.493 19.0015L23.507 18.9025ZM22.3858 18.9025L22.3997 19.0015L22.4005 19.0014L22.3858 18.9025ZM22.073 19.0243L22.139 19.0994L22.1398 19.0987L22.073 19.0243ZM21.9386 19.2951L21.8401 19.2779L21.84 19.2789L21.9386 19.2951ZM21.9386 20.2189L21.84 20.2358L21.8403 20.2369L21.9386 20.2189ZM22.0709 20.4835L22.0033 20.5572L22.0041 20.5579L22.0709 20.4835ZM22.3858 20.6116L22.3692 20.7102L22.3702 20.7103L22.3858 20.6116ZM23.507 20.6116L23.5231 20.7103L23.524 20.7101L23.507 20.6116ZM23.8199 20.4835L23.7545 20.4078L23.7538 20.4084L23.8199 20.4835ZM23.9626 20.2189L23.865 20.1975L23.8647 20.1986L23.9626 20.2189ZM23.0493 21.9217V21.8217C22.8368 21.8217 22.6437 21.8162 22.4699 21.8051L22.4635 21.9049L22.4572 22.0047C22.6361 22.0161 22.8335 22.0217 23.0493 22.0217V21.9217ZM22.4635 21.9049L22.4691 21.8051C22.3001 21.7956 22.1585 21.7715 22.0428 21.7342L22.0121 21.8293L21.9814 21.9245C22.1177 21.9684 22.277 21.9946 22.4579 22.0048L22.4635 21.9049ZM22.0121 21.8293L22.0418 21.7339C21.9313 21.6995 21.8526 21.6465 21.7987 21.5784L21.7203 21.6404L21.6418 21.7024C21.7251 21.8078 21.841 21.8808 21.9824 21.9248L22.0121 21.8293ZM21.7203 21.6404L21.7982 21.5778C21.7484 21.5157 21.7174 21.423 21.7174 21.2876H21.6174H21.5174C21.5174 21.4519 21.555 21.5943 21.6423 21.703L21.7203 21.6404ZM21.6174 21.2876V21.3876H22.0205V21.2876V21.1876H21.6174V21.2876ZM22.0205 21.2876H21.9205C21.9205 21.4161 21.9732 21.5227 22.0853 21.585L22.1339 21.4976L22.1825 21.4102C22.1434 21.3885 22.1205 21.3552 22.1205 21.2876H22.0205ZM22.1339 21.4976L22.086 21.5854C22.1824 21.638 22.3148 21.6643 22.4727 21.673L22.4782 21.5732L22.4837 21.4733C22.3365 21.4652 22.2394 21.4412 22.1818 21.4098L22.1339 21.4976ZM22.4782 21.5732L22.4727 21.673C22.6278 21.6816 22.8201 21.6858 23.0493 21.6858V21.5858V21.4858C22.8222 21.4858 22.6338 21.4816 22.4837 21.4733L22.4782 21.5732ZM23.0493 21.5858V21.6858C23.2207 21.6858 23.3688 21.6801 23.4932 21.6686L23.4839 21.569L23.4747 21.4694C23.3583 21.4802 23.2167 21.4858 23.0493 21.4858V21.5858ZM23.4839 21.569L23.492 21.6687C23.624 21.6579 23.7397 21.6243 23.8334 21.5619L23.7779 21.4787L23.7224 21.3955C23.6649 21.4339 23.5847 21.4605 23.4758 21.4693L23.4839 21.569ZM23.7779 21.4787L23.8326 21.5624C23.9355 21.4951 24.0024 21.3867 24.0418 21.2529L23.9459 21.2247L23.8499 21.1964C23.8193 21.3006 23.7742 21.3616 23.7231 21.395L23.7779 21.4787ZM23.9459 21.2247L24.0414 21.2542C24.0821 21.1225 24.1004 20.945 24.1004 20.7271H24.0004H23.9004C23.9004 20.9374 23.8823 21.0916 23.8503 21.1951L23.9459 21.2247ZM24.0004 20.7271H24.1004V20.6704H24.0004H23.9004V20.7271H24.0004ZM24.0004 20.6704L23.9215 20.609C23.8391 20.715 23.7248 20.7869 23.5723 20.8229L23.5952 20.9202L23.6182 21.0175C23.81 20.9723 23.9658 20.8777 24.0794 20.7318L24.0004 20.6704ZM23.5952 20.9202L23.5721 20.8229C23.4114 20.8611 23.2077 20.8811 22.959 20.8811V20.9811V21.0811C23.2171 21.0811 23.4375 21.0605 23.6183 21.0175L23.5952 20.9202ZM22.959 20.9811V20.8811C22.7006 20.8811 22.4829 20.8666 22.305 20.8383L22.2893 20.937L22.2735 21.0358C22.4651 21.0662 22.6939 21.0811 22.959 21.0811V20.9811ZM22.2893 20.937L22.3057 20.8384C22.1317 20.8094 21.9969 20.7564 21.8964 20.6838L21.8378 20.7648L21.7793 20.8459C21.9112 20.9412 22.0773 21.0031 22.2728 21.0357L22.2893 20.937ZM21.8378 20.7648L21.8969 20.6841C21.8017 20.6145 21.7286 20.5115 21.6808 20.3679L21.5859 20.3995L21.491 20.4311C21.5495 20.6067 21.6444 20.7472 21.7788 20.8455L21.8378 20.7648ZM21.5859 20.3995L21.6808 20.3679C21.6323 20.2224 21.6061 20.0257 21.6061 19.7738H21.5061H21.4061C21.4061 20.037 21.4331 20.2575 21.491 20.4311L21.5859 20.3995ZM21.5061 19.7738H21.6061C21.6061 19.5046 21.6324 19.2964 21.6811 19.1452L21.5859 19.1146L21.4907 19.0839C21.433 19.263 21.4061 19.4944 21.4061 19.7738H21.5061ZM21.5859 19.1146L21.6811 19.1452C21.7292 18.9957 21.8024 18.8916 21.8962 18.8241L21.8378 18.7429L21.7794 18.6617C21.6437 18.7594 21.5489 18.9031 21.4907 19.0839L21.5859 19.1146ZM21.8378 18.7429L21.8964 18.824C21.9961 18.7519 22.1301 18.701 22.3035 18.676L22.2893 18.5771L22.275 18.4781C22.0789 18.5063 21.9119 18.566 21.7793 18.6619L21.8378 18.7429ZM22.2893 18.5771L22.3042 18.6759C22.4825 18.6489 22.7005 18.6351 22.959 18.6351V18.5351V18.4351C22.6941 18.4351 22.4655 18.4492 22.2743 18.4782L22.2893 18.5771ZM22.959 18.5351V18.6351C23.2081 18.6351 23.4123 18.6537 23.5736 18.6894L23.5952 18.5917L23.6168 18.4941C23.4366 18.4542 23.2167 18.4351 22.959 18.4351V18.5351ZM23.5952 18.5917L23.5745 18.6896C23.7258 18.7216 23.8391 18.7917 23.9212 18.8984L24.0004 18.8374L24.0797 18.7764C23.9658 18.6283 23.809 18.5347 23.6159 18.4939L23.5952 18.5917ZM24.0004 18.8374H24.1004V18.5812H24.0004H23.9004V18.8374H24.0004ZM24.0004 18.5812V18.6812H24.4036V18.5812V18.4812H24.0004V18.5812ZM24.4036 18.5812H24.3036V20.7438H24.4036H24.5036V18.5812H24.4036ZM24.4036 20.7438L24.3036 20.7417C24.2981 21.0019 24.2652 21.2001 24.2097 21.3414L24.3028 21.3779L24.3959 21.4145C24.4635 21.2423 24.4978 21.0177 24.5035 20.746L24.4036 20.7438ZM24.3028 21.3779L24.2096 21.3416C24.1537 21.4852 24.0768 21.5844 23.9825 21.6476L24.0382 21.7307L24.0939 21.8137C24.2292 21.723 24.3287 21.587 24.396 21.4142L24.3028 21.3779ZM24.0382 21.7307L23.9814 21.6484C23.8832 21.7162 23.7587 21.7629 23.6042 21.7849L23.6183 21.8839L23.6325 21.9829C23.811 21.9574 23.9665 21.9019 24.0951 21.8129L24.0382 21.7307ZM23.6183 21.8839L23.6032 21.7851C23.4442 21.8093 23.2598 21.8217 23.0493 21.8217V21.9217V22.0217C23.2672 22.0217 23.4621 22.0089 23.6334 21.9828L23.6183 21.8839ZM24.0004 19.7738H24.1004C24.1004 19.5705 24.0877 19.4031 24.0605 19.2744L23.9626 19.2951L23.8648 19.3158C23.8879 19.4251 23.9004 19.5768 23.9004 19.7738H24.0004ZM23.9626 19.2951L24.0607 19.2757C24.0339 19.1401 23.9779 19.0267 23.8843 18.9478L23.8199 19.0243L23.7554 19.1007C23.8046 19.1422 23.8438 19.2094 23.8645 19.3145L23.9626 19.2951ZM23.8199 19.0243L23.8859 18.9492C23.7957 18.8698 23.6699 18.8245 23.521 18.8035L23.507 18.9025L23.493 19.0015C23.6214 19.0197 23.7041 19.0556 23.7538 19.0993L23.8199 19.0243ZM23.507 18.9025L23.5222 18.8036C23.3778 18.7815 23.1895 18.771 22.959 18.771V18.871V18.971C23.1849 18.971 23.3619 18.9814 23.4919 19.0013L23.507 18.9025ZM22.959 18.871V18.771C22.7162 18.771 22.5196 18.7815 22.3711 18.8036L22.3858 18.9025L22.4005 19.0014C22.5349 18.9815 22.7204 18.971 22.959 18.971V18.871ZM22.3858 18.9025L22.372 18.8035C22.2221 18.8244 22.0955 18.8696 22.0062 18.9499L22.073 19.0243L22.1398 19.0987C22.1876 19.0557 22.2697 19.0197 22.3997 19.0015L22.3858 18.9025ZM22.073 19.0243L22.007 18.9491C21.9163 19.0288 21.8637 19.1427 21.8401 19.2779L21.9386 19.2951L22.0371 19.3123C22.0555 19.2068 22.0925 19.1402 22.139 19.0994L22.073 19.0243ZM21.9386 19.2951L21.84 19.2789C21.8191 19.4056 21.8092 19.5713 21.8092 19.7738H21.9092H22.0092C22.0092 19.5761 22.019 19.4226 22.0373 19.3114L21.9386 19.2951ZM21.9092 19.7738H21.8092C21.8092 19.9587 21.8191 20.1133 21.84 20.2358L21.9386 20.2189L22.0372 20.2021C22.0189 20.0951 22.0092 19.9529 22.0092 19.7738H21.9092ZM21.9386 20.2189L21.8403 20.2369C21.8641 20.3671 21.9161 20.4772 22.0033 20.5572L22.0709 20.4835L22.1385 20.4098C22.0914 20.3666 22.0552 20.3004 22.037 20.201L21.9386 20.2189ZM22.0709 20.4835L22.0041 20.5579C22.0926 20.6374 22.2187 20.6849 22.3692 20.7102L22.3858 20.6116L22.4024 20.513C22.2702 20.4907 22.1864 20.4528 22.1377 20.4091L22.0709 20.4835ZM22.3858 20.6116L22.3702 20.7103C22.5191 20.7339 22.7161 20.7452 22.959 20.7452V20.6452V20.5452C22.7205 20.5452 22.5354 20.534 22.4015 20.5128L22.3858 20.6116ZM22.959 20.6452V20.7452C23.1896 20.7452 23.3784 20.7339 23.5231 20.7103L23.507 20.6116L23.4909 20.5129C23.3614 20.534 23.1847 20.5452 22.959 20.5452V20.6452ZM23.507 20.6116L23.524 20.7101C23.6722 20.6847 23.7967 20.6371 23.8859 20.5586L23.8199 20.4835L23.7538 20.4084C23.7031 20.4531 23.6191 20.4909 23.4901 20.513L23.507 20.6116ZM23.8199 20.4835L23.8852 20.5592C23.977 20.48 24.0334 20.3702 24.0606 20.2392L23.9626 20.2189L23.8647 20.1986C23.8443 20.2972 23.8056 20.3638 23.7545 20.4078L23.8199 20.4835ZM23.9626 20.2189L24.0603 20.2404C24.0877 20.1158 24.1004 19.9595 24.1004 19.7738H24.0004H23.9004C23.9004 19.9521 23.888 20.0925 23.865 20.1975L23.9626 20.2189Z" fill="black" mask="url(#path-5-outside-2_925_398)"/>
</svg>
